<svg xmlns="http://www.w3.org/2000/svg" width="370.9025" height="487.9502" viewBox="0 0 370.9025 487.9502">
  <g id="katman_2" data-name="katman 2">
    <g id="katman_1-2" data-name="katman 1">
      <g id="XDmgVZ">
        <path d="M179.0175,136.6618c.0228.5353-.8881.4846-.5862,1.2984,5.4947.4884,11.0786.9421,16.6534,1.4878,24.1565,2.3644,47.52,7.5933,69.1214,19.1821,8.9466,4.8,17.0174,10.7056,23.656,18.6663,5.2787-2.3414,12.1356-1.7395,14.6451-8.7777,1.2241,2.3945,1.2241,2.3945-1.91,11.5244,4.5637-1.0342,6.67-4.9715,9.8708-7.8742a11.9788,11.9788,0,0,1,.6693,9.721c-2.4033,6.4355-6.5228,11.2623-13.32,13.2652-2.5394.7484-3.7031,2.213-3.626,4.83.0485,1.6466-.188,3.3055-.0864,4.9458.2043,3.3007,1.1435,6.434,3.7158,8.6354,4.1138,3.5206,8.0723,7.3185,13.2859,9.2808a1.8513,1.8513,0,0,1,1.305,1.8645c.2049,4.4633-1.7811,8.1467-4.1809,11.6488-.7173,1.0467-2.1058.9582-3.2128.9249a50.9107,50.9107,0,0,0-11.4919,1.451,23.673,23.673,0,0,1-10.0779-.131,10.5189,10.5189,0,0,0-6.3168.3817c-14.2468,5.4334-28.67,5.3957-43.2727,1.5781-5.7209-1.4956-4.5123-1.7135-5.963,3.4792-2.5077,8.9765-3.2631,17.9831.3453,26.9412.86,2.136,1.8891,3.3072,4.4345,3.2064a25.43,25.43,0,0,1,8.2664,1.3634c12.09,3.65,24.2445,3.384,36.446.7078,3.5076-.7693,7.17-1.0876,10.5137-3.3039-2.233-1.95-4.3681-3.7123-6.3806-5.6052-1.43-1.3452-3.1639-2.8021-2.5262-5.0256.6758-2.3562,2.9937-2.9506,5.0613-3.4709,3.9748-1,7.4909.3352,10.7278,2.5531,1.6848,1.1544,3.2826,2.4358,4.9076,3.6508.192-.21.3652-.31.3723-.4212.398-6.099,3.7359-10.1316,8.8542-13.1086a24.53,24.53,0,0,0,8.0071-7.9671c.48-.7283.7886-1.638,1.8016-2.0914,2.7666,5.7061-.0458,9.9594-3.598,14.018,8.8175,3.1744,16.2012.3562,21.0537-7.9322,1.9884,4.0363.6619,7.6146-5.5453,14.72,5.472,5.6224,9.3209,12.4385,13.2432,19.1635,4.6685,8.0045,10.2211,15.1746,17.6093,20.8327,1.374,1.0523,2.8281,1.9991,4.2281,3.0184,6.8391,4.98,6.93,13.7526.1622,18.8018a7.36,7.36,0,0,0-1.8753,2.2488,9.1329,9.1329,0,0,1-8.9133,4.6745,25.793,25.793,0,0,1-3.4317-.4344c-13.4089-2.5848-26.591-.5682-39.7316,2.0039a15.3228,15.3228,0,0,0-7.3125,3.9468c-6.5177,5.8928-11.6766,12.5172-12.85,21.6132a19.6584,19.6584,0,0,1-3.6726,8.3137,93.7113,93.7113,0,0,0-10.4217,20.1412c-3.4926,9.4688-9.3073,17.2353-18.532,22a6.3493,6.3493,0,0,0-2.7733,3.3658c-2.898,6.5671-5.2987,13.3254-7.65,20.1a11.6079,11.6079,0,0,0-.6465,3.64c-.0565,6.516-.27,13.0456.06,19.5456A20.9843,20.9843,0,0,0,256.2642,470.8a13.0892,13.0892,0,0,1,4.0353,4.9257c.97,2.2868.3971,3.8252-1.9631,4.3483-7.4721,1.6563-12.7234.3472-17.0434-5.2608-4.311-5.5963-6.5506-11.8078-5.5789-18.9249,1.6093-11.7873-.6388-23.1553-3.5906-34.4576-.6444-2.4673-1.3067-4.93-2.0278-7.6475-1.13,1.4569-1.0481,3.032-1.2342,4.4683-.9093,7.0213-2.4085,13.7531-6.98,19.5238-2.11,2.6631-2.1938,6.174-2.3351,9.4778a181.2665,181.2665,0,0,0,.8645,22.4918,10.0379,10.0379,0,0,0,1.8578,4.5306c2.46,3.8736,4.915,7.75,7.5333,11.88-4.9672.7575-9.6252,1.8632-14.4095,1.7919a6.5977,6.5977,0,0,1-6.3511-3.9378c-.9387-2.0125-2.1512-3.8953-3.1806-5.8678a20.8069,20.8069,0,0,1-1.53-16.0164,77.21,77.21,0,0,0,.7723-40.1123c-1.2225-4.9334-1.0879-9.9925-1.3921-15.0051-.23-3.7829-2.1108-6.0628-5.5871-7.3171-5.598-2.02-11.28-2.668-16.9676-.682-22.01,7.686-43.7716,6.2357-65.4269-1.4707-5.9-2.1-11.545-4.8154-17.4947-7.1565a48.8075,48.8075,0,0,1-3.04,6.2475,20.1586,20.1586,0,0,1-6.2775,6.2293,7.4322,7.4322,0,0,0-3.855,5.66c-.1509,1.0569-.45,2.0921-.667,3.14-.1176.569-.1569,1.1658-.9433,1.2306-.7916.0652-.9808-.5437-1.13-1.0722-.7745-2.7362-2.9629-4.0544-5.2369-5.2775a2.3572,2.3572,0,0,0-3.5489.9689,38.2475,38.2475,0,0,0-3.3824,6.2289,5.6669,5.6669,0,0,1-2.2368-3.4832c-.732-3.9768-1.165-4.3866-5.4619-4.584-.0723,7.5663-.553,15.1222.1994,22.6788.5889,5.9154,1.6974,11.75,2.806,17.5821a23.8362,23.8362,0,0,0,8.7157,14.2711,29.8465,29.8465,0,0,1,6.3422,7.5377c1.6317,2.6258.8,4.0782-2.3344,4.457-13.2057,1.5961-20.8174-5.7339-24.68-18.5165-1.6791-5.5565-1.4043-11.4372-2.4336-17.1217-1.8285-10.0974-6.7611-22.9122-11.4464-28.9194a39.4432,39.4432,0,0,0-8.85,17.1613c-2.5457,11.2333-2.4448,22.6177-.9247,33.9544.5965,4.4479,3.0417,8.4186,5.7608,11.9067,2.2839,2.93,3.629,6.2126,5.3878,9.4237-4.5533,2.6984-9.1351,4.0684-14.29,2.9829-5.4865-1.1554-8.6415-4.6842-8.8864-10.2913a4.662,4.662,0,0,0-1.062-2.9369,15.4568,15.4568,0,0,1-3.5921-12.2665c2.0592-13.8356.8176-27.6864.5158-41.5164a58.4217,58.4217,0,0,1,5.441-26.3608c2.9862-6.4455,5.9236-13.0552,5.2328-20.38-1.1688-12.3942-2.8591-24.7327-4.9594-37.0076A17.4516,17.4516,0,0,0,17.8,327.7632c-.4312,5.9345-.8588,11.8019-1.3248,17.6678-.8557,10.7711-1.59,21.5519-2.3938,32.3272a115.2166,115.2166,0,0,0-.1469,12.6142c.3426,9.827-3.9168,17.7606-10.3429,25.0948A22.09,22.09,0,0,1,.2062,405.0115c-.79-9.0318.5732-17.5635,6.1253-25.1248a20.5336,20.5336,0,0,0,3.8966-12.53c-.0218-14.9412-1.0461-29.8475-1.3958-44.7769a103.6043,103.6043,0,0,1,5.18-35.06A14.5629,14.5629,0,0,1,24.663,277.4684c9.24-2.5111,18.6853-4.061,28.0733-5.8763.718-.1388,1.4351-.2823,2.0972-.4127.3861-6.1743.3342-12.1184-1.3054-18.0366-1.9839-7.1612-1.1957-14.0225,3.1985-20.3029,2.483-3.5488,2.0616-7.2817.1954-11.0163a66.997,66.997,0,0,1-6.9113-22.0676,54.2809,54.2809,0,0,1,1.8824-22.2686,7.9881,7.9881,0,0,0-.1043-5.8108c-2.1545.8953-4.0818,2.2407-6.429,2.5319a6.8992,6.8992,0,0,1-7.0037-3.2334c-1.3447-1.998-.9655-5.187.7-7.4508a5.9923,5.9923,0,0,1,5.8213-2.5158,22.3642,22.3642,0,0,1,5.9976,1.9015c.3421-1.5554-.6826-2.8918-.4442-4.6387,2.1426,1.0541,2.5881,2.8256,2.64,4.825.0508,1.953-.0059,3.938,1.7735,5.55,3.0028-3.6323,5.6777-7.4,8.9585-10.659,10.9649-10.8919,24.5111-16.4294,39.4464-19.0781a197.105,197.105,0,0,1,38.4316-2.8052c1.9041.0379,2.7584-.5414,2.7874-2.4048q.0924-5.9387.2073-11.877a3.0687,3.0687,0,0,0-1.7689-2.76,27.7409,27.7409,0,0,1-8.4561-8.21c-1.8942-2.7882-4.7242-4.5822-7.3582-6.5533-4.9527-3.7062-9.9731-7.3219-14.9521-10.9933a19.5224,19.5224,0,0,1-5.4221-5.7145c-2.1594-3.6912-4.1266-7.493-6.8674-10.8119a.8466.8466,0,0,1-.2442-.4234c-.0971-3.8178-2.9288-7.095-2.1993-11.0673.239-1.3016-.6918-1.9916-1.4283-2.6991C91.6218,58.4033,93.003,52.89,91.98,48.1875c1.3068-1.0006,1.7371.2447,2.7048-.0554-1.0488-2.45-2.8188-4.6282-3.0438-7.5824l1.9269.459a4.6039,4.6039,0,0,0-.0076-.8772c-.2844-1.2012-.65-2.3862-.8716-3.598-.1285-.7027-.2824-1.5349.465-2.0411a1.8052,1.8052,0,0,1,2.0869.2215c1.56,1.0173,3.0744,2.1054,5.0527,3.4733-1.3194-4.95-5.0266-8.22-6.2326-12.7977,2.181-1.08,3.7907.6455,5.7956.8981a25.9576,25.9576,0,0,1-2.5882-7.6267c-.21-.9249-.6839-2.0474.2337-2.7946.8838-.72,1.8882-.1592,2.8.2142.6825.2794,1.35.5941,2.0969.925.457-1.4934-1.5646-3.2291.26-4.3225,1.4727-.8825,2.9857.4378,4.5951.6883l.3983-1.8372c2.392-1.7957,7.6147,2.74,10.033,8.5967.8589-2.6194.239-4.4687-4.1024-11.9958,7.25,2.5322,9.3078,9.16,12.8548,14.928.2108-2.6631-.9908-4.5658-1.8117-6.8795a8.6661,8.6661,0,0,1,4.6034,6.0414c.9213,3.9309,1.5637,7.93,2.5681,11.8379,2.6747,10.4065,8.6587,17.7214,19.6267,19.91,6.0091,1.199,11.4239-.5427,16.25-4.2178a7.0016,7.0016,0,0,0,2.2178-3.21c4.214-10.9323,10.2744-20.8242,17.1086-30.2778a17.1009,17.1009,0,0,1,7.2368-6.199,3.1581,3.1581,0,0,0,2.3336-3.65c-.2224-4.3136,2.9272-6.9044,7.6274-6.3422-1.6929,1.0049-3.5772,1.65-3.3227,4.2546l4.8005-1.9669c.676.69-.1085,1.0786-.2623,1.5391-.3676,1.1-.2472,1.8463,1.0849,1.8118,2.4149-.0625,3.6793,1.8016,4.9406,3.2619,1.608,1.8617,2.13,4.1537-.1966,6.2414,1.133,1.2021,2.1706,2.3027,3.61,3.83-3.7017.0461-4.995,2.0653-5.55,4.9535a3.7808,3.7808,0,0,1-2.5442,2.851c-1.6368.541-2.034,1.7509-2.2208,3.2093a14.98,14.98,0,0,0,1.2064,7.9643c2.1082,4.9157,4.6838,9.6357,5.9947,14.8859a51.5586,51.5586,0,0,1-.4042,26.4165,11.5368,11.5368,0,0,1-4.9884,7.1331,4.6528,4.6528,0,0,0-1.6588,1.7868,30.0168,30.0168,0,0,1-12.0429,11.7808c-8.4294,4.7333-16.6335,9.7775-23.6786,16.51-3.3291,3.1812-3.7387,4.411-2.2148,8.7037.7164,2.0179,1.4318,4.0411,2.27,6.0095,1.5081,3.54,4.0427,5.5442,8.0988,5.1424A2.7213,2.7213,0,0,1,179.0175,136.6618ZM203.8544,279.15c-4.5465-3.6023-5.3861-8.1712-5.7325-12.9708-.4453-6.1684-.7518-12.3617-2.0619-18.4263-1.0225-4.7334-3.4249-6.4834-8.2734-6.3129-.7415.0261-1.4857.0692-2.221.1637-7.8508,1.0089-15.6916,2.1009-23.5515,3.0319-14.7434,1.7464-29.435,1.7781-44.0838-1.1495a82.5874,82.5874,0,0,1-19.3644-6.5936c-2.8022-1.3326-3.537-.9538-4.5889,1.9433a24.6138,24.6138,0,0,0-.7489,15.3147,60.2567,60.2567,0,0,0,11.7305,21.85c.6553.8068,1.4183.7119,2.2154.7163a149.08,149.08,0,0,0,17.7871-.9158,214.05,214.05,0,0,1,64.0517,2.1262A62.165,62.165,0,0,0,203.8544,279.15ZM77.1031,241.9228c-3.0607,2.8766-6.0664,5.5585-8.7445,8.5928a6.7827,6.7827,0,0,0-1.8413,5.21,54.1156,54.1156,0,0,0,2.661,13.7869,2.4644,2.4644,0,0,0,2.2327,1.908,101.5259,101.5259,0,0,1,13.2557,2.9624A20.1672,20.1672,0,0,0,91.04,275.41c-1.3458-2.0258-2.3385-3.9728-3.9642-5.3771-2.4947-2.1549-3.4346-4.942-3.7944-8.0587-.17-1.4737-.3509-2.95-.6165-4.4081A43.58,43.58,0,0,0,77.1031,241.9228Zm86.76-104.9008c-1.7816-6.2215-3.5933-11.7507-5.7165-17.1677-.6051-1.5437-1.7219-2.208-3.4646-.8981-3.6935,2.7762-5.7506,12.638-3.2987,16.488.3222.506.642.9455,1.3068.98C156.2691,136.6122,159.8477,136.8066,163.8631,137.022ZM218.6414,276.03c-2.2433-3.67-1.7464-7.5866-1.6983-11.4426.061-4.89-2.227-8.3485-6.41-10.8688-.2478.475-.4214.75-.542,1.0471-2.7074,6.6661-1.0783,12.9376,1.74,19.1032C213.8019,278.3986,213.7967,278.401,218.6414,276.03ZM44.8738,171.6981c2.704.0053,4.7638-1.5054,4.8482-3.5557.0736-1.79-2.73-3.9666-5.1917-4.03-2.4543-.0635-4.01,1.3646-3.9759,3.6487C40.5926,170.2839,42.1381,171.6927,44.8738,171.6981Z"/>
      </g>
    </g>
  </g>
</svg>
