<svg id="svg" version="1.1" xmlns="http://www.w3.org/2000/svg" style="display: block;" viewBox="0 0 384 395"><path d="M0 0 C126.72 0 253.44 0 384 0 C384 130.35 384 260.7 384 395 C257.28 395 130.56 395 0 395 C0 264.65 0 134.3 0 0 Z " transform="translate(0,0)" style="fill: #994C2E;"/><path d="M0 0 C3.97715312 1.70588675 7.15796939 4.3728411 10.5 7.0625 C15.94154011 11.39175554 21.44775306 15.61351317 27.0234375 19.76953125 C30.6385835 22.4785186 34.21892652 25.23097625 37.79541016 27.99072266 C40.89385431 30.38095101 43.99758944 32.76387391 47.109375 35.13671875 C53.81895617 40.25335583 60.51173196 45.38426138 67.125 50.625 C74.27062774 56.28321302 81.61843778 61.6550873 89 67 C92.33436496 63.79491575 94.59847021 61.45941297 96 57 C94.515 55.515 94.515 55.515 93 54 C127.32 54 161.64 54 197 54 C197 103.5 197 153 197 204 C70.28 204 -56.44 204 -187 204 C-187 154.5 -187 105 -187 54 C-155.65 54 -124.3 54 -92 54 C-92.66 54.99 -93.32 55.98 -94 57 C-93.85359862 61.24564004 -90.6743553 63.98277864 -88 67 C-82.27275032 63.34784078 -76.91999012 59.41054281 -71.65234375 55.125 C-68.89491409 52.91580746 -66.08510224 50.79594257 -63.25 48.6875 C-58.97082538 45.49845731 -54.74714975 42.24910211 -50.5625 38.9375 C-41.93696097 32.11759181 -33.16506805 25.49020103 -24.41162109 18.8359375 C-16.23370339 12.61018926 -8.10281847 6.32312966 0 0 Z " transform="translate(187,191)" style="fill: #EAE1CA;"/><path d="M0 0 C126.72 0 253.44 0 384 0 C384 21.45 384 42.9 384 65 C376.41 65 368.82 65 361 65 C361 43.88 361 22.76 361 1 C348.13 1 335.26 1 322 1 C322 22.12 322 43.24 322 65 C215.74 65 109.48 65 0 65 C0 43.55 0 22.1 0 0 Z " transform="translate(0,0)" style="fill: #FEFEFE;"/><path d="M0 0 C24.75 0 49.5 0 75 0 C75 37.29 75 74.58 75 113 C50.25 113 25.5 113 0 113 C0 75.71 0 38.42 0 0 Z " transform="translate(150,282)" style="fill: #C75F29;"/><path d="M0 0 C20.13 0 40.26 0 61 0 C61 26.4 61 52.8 61 80 C40.87 80 20.74 80 0 80 C0 53.6 0 27.2 0 0 Z " transform="translate(285,273)" style="fill: #5A3646;"/><path d="M0 0 C20.13 0 40.26 0 61 0 C61 26.4 61 52.8 61 80 C40.87 80 20.74 80 0 80 C0 53.6 0 27.2 0 0 Z " transform="translate(30,273)" style="fill: #5B3847;"/><path d="M0 0 C3.62806471 1.58727831 6.02623124 3.70366483 8.8984375 6.3984375 C11.60874455 8.86693277 14.53407841 10.94699735 17.53125 13.05078125 C18.0159375 13.46714844 18.500625 13.88351563 19 14.3125 C19 14.9725 19 15.6325 19 16.3125 C19.886875 16.539375 20.77375 16.76625 21.6875 17 C25.47917931 18.5023635 27.21313665 20.38272058 30 23.3125 C31.65261839 24.33554948 33.31791365 25.33866054 35 26.3125 C35.43054688 26.74949219 35.86109375 27.18648437 36.3046875 27.63671875 C38.53529588 29.84162887 40.98311339 31.62889351 43.5 33.5 C44.02247314 33.89002197 44.54494629 34.28004395 45.08325195 34.68188477 C49.64857375 38.08030729 54.27332493 41.3944683 58.91796875 44.68359375 C61 46.3125 61 46.3125 62 48.3125 C62.7425 48.580625 63.485 48.84875 64.25 49.125 C67.67449574 50.60375952 69.35967588 52.66120501 72 55.3125 C74.57668321 57.5393197 77.22313331 59.67613637 79.875 61.8125 C80.55691406 62.36808594 81.23882812 62.92367187 81.94140625 63.49609375 C86.18876398 66.93443096 90.52263163 70.17951117 95 73.3125 C93.5140084 77.90556496 91.14985318 80.74819245 88 84.3125 C82.90458602 81.56032735 78.51615901 78.49903601 74.0625 74.8125 C68.69163419 70.43779402 63.24781187 66.19380908 57.6875 62.0625 C52.53960369 58.23284774 47.46932314 54.33699008 42.48046875 50.30078125 C34.50959174 43.91152708 26.32781276 37.78717646 18.12890625 31.6953125 C15.81102484 29.9301344 13.53708318 28.14148725 11.27734375 26.3046875 C10.64884521 25.79736084 10.02034668 25.29003418 9.37280273 24.76733398 C8.14812605 23.775108 6.92986325 22.77489907 5.71899414 21.76586914 C2.44525166 19.12101861 1.35977773 18.3125 -3 18.3125 C-5.739758 20.03656301 -5.739758 20.03656301 -8.625 22.4375 C-9.782435 23.35561637 -10.93999426 24.2735761 -12.09765625 25.19140625 C-12.72172363 25.69172363 -13.34579102 26.19204102 -13.98876953 26.70751953 C-17.65279451 29.63144527 -21.36075152 32.49909786 -25.0625 35.375 C-25.83577637 35.97755615 -26.60905273 36.5801123 -27.40576172 37.20092773 C-32.58502232 41.23235517 -37.81355593 45.18612797 -43.078125 49.10546875 C-46.4211411 51.63060791 -49.7129678 54.21519546 -53 56.8125 C-58.26544399 60.97279754 -63.59208049 65.03708736 -68.9765625 69.04296875 C-71.15202393 70.67597016 -73.31217397 72.32093143 -75.4609375 73.98828125 C-76.04093506 74.4380835 -76.62093262 74.88788574 -77.21850586 75.35131836 C-78.84399983 76.61482191 -80.4669992 77.88153284 -82.08984375 79.1484375 C-84.65475121 81.05576466 -87.22686851 82.72931259 -90 84.3125 C-91.20254524 83.07696724 -92.38666232 81.82347661 -93.5625 80.5625 C-94.55443359 79.51835937 -94.55443359 79.51835937 -95.56640625 78.453125 C-97 76.3125 -97 76.3125 -96.95703125 74.28125 C-95.73457687 71.76648671 -94.24487683 70.37953729 -92.125 68.5625 C-91.42632812 67.94890625 -90.72765625 67.3353125 -90.0078125 66.703125 C-88 65.3125 -88 65.3125 -85 65.3125 C-84.80019531 64.74402344 -84.60039063 64.17554688 -84.39453125 63.58984375 C-82.46774687 60.44330231 -79.72783875 58.8287804 -76.6875 56.875 C-72.28951518 54.02104156 -68.69889724 51.07629018 -65 47.3125 C-62.6875 46.5 -62.6875 46.5 -61 46.3125 C-61 45.6525 -61 44.9925 -61 44.3125 C-57.53846154 41.3125 -57.53846154 41.3125 -55 41.3125 C-55 40.6525 -55 39.9925 -55 39.3125 C-53.59607839 38.33081046 -52.18467476 37.35811115 -50.73779297 36.44091797 C-47.88642932 34.58941435 -45.23941797 32.46637948 -42.5625 30.375 C-29.56033098 20.3125 -29.56033098 20.3125 -27 20.3125 C-26.505 18.8275 -26.505 18.8275 -26 17.3125 C-21.66666667 14.3125 -21.66666667 14.3125 -19 14.3125 C-18.79375 13.735 -18.5875 13.1575 -18.375 12.5625 C-16.47442144 9.45246235 -14.08169828 8.25282855 -11 6.3125 C-9.6657287 5.20946695 -8.33243164 4.1052546 -7 3 C-4.36758543 1.0456316 -3.32439692 0.34629135 0 0 Z " transform="translate(189,174.6875)" style="fill: #C7612B;"/><path d="M0 0 C12.87 0 25.74 0 39 0 C39 20.79 39 41.58 39 63 C26.13 63 13.26 63 0 63 C0 42.21 0 21.42 0 0 Z " transform="translate(322,1)" style="fill: #C76028;"/><path d="M0 0 C20.79 0 41.58 0 63 0 C63 21.45 63 42.9 63 65 C55.41 65 47.82 65 40 65 C40 43.88 40 22.76 40 1 C27.13 1 14.26 1 1 1 C1 22.12 1 43.24 1 65 C-105.26 65 -211.52 65 -321 65 C-321 64.67 -321 64.34 -321 64 C-215.07 64 -109.14 64 0 64 C0 42.88 0 21.76 0 0 Z " transform="translate(321,0)" style="fill: #F4EFED;"/><path d="M0 0 C8.25 0.33 16.5 0.66 25 1 C25 16.18 25 31.36 25 47 C16.75 47 8.5 47 0 47 C0 31.49 0 15.98 0 0 Z " transform="translate(159,344)" style="fill: #9B4C2E;"/><path d="M0 0 C8.25 0 16.5 0 25 0 C25 15.18 25 30.36 25 46 C16.75 46 8.5 46 0 46 C0 30.82 0 15.64 0 0 Z " transform="translate(159,292)" style="fill: #9A4C2E;"/><path d="M0 0 C7.92 0 15.84 0 24 0 C24 15.18 24 30.36 24 46 C16.08 46 8.16 46 0 46 C0 30.82 0 15.64 0 0 Z " transform="translate(192,345)" style="fill: #9A4C2E;"/><path d="M0 0 C7.92 0 15.84 0 24 0 C24 15.18 24 30.36 24 46 C16.08 46 8.16 46 0 46 C0 30.82 0 15.64 0 0 Z " transform="translate(192,292)" style="fill: #994C2E;"/><path d="M0 0 C8.8275 -0.020625 17.655 -0.04125 26.75 -0.0625 C30.92414551 -0.07615601 30.92414551 -0.07615601 35.18261719 -0.09008789 C37.3873693 -0.09300841 39.59212195 -0.09555665 41.796875 -0.09765625 C43.51511475 -0.1053302 43.51511475 -0.1053302 45.26806641 -0.11315918 C46.36393066 -0.11328003 47.45979492 -0.11340088 48.58886719 -0.11352539 C50.01449982 -0.11685631 50.01449982 -0.11685631 51.46893311 -0.12025452 C53.79773487 -0.0096099 55.77207276 0.33917863 58 1 C57.67 1.66 57.34 2.32 57 3 C56.01 3 55.02 3 54 3 C53.67 3.99 53.34 4.98 53 6 C46.4 6 39.8 6 33 6 C33 16.56 33 27.12 33 38 C39.6 38 46.2 38 53 38 C53 39.32 53 40.64 53 42 C46.4 42 39.8 42 33 42 C32.67 41.34 32.34 40.68 32 40 C30.515 40.495 30.515 40.495 29 41 C29.33 39.35 29.66 37.7 30 36 C29.34 36 28.68 36 28 36 C28 26.1 28 16.2 28 6 C17.605 6.495 17.605 6.495 7 7 C6.67 16.24 6.34 25.48 6 35 C5.34 34.67 4.68 34.34 4 34 C2.19769832 37.82989106 1.80377759 40.78121808 2 45 C2.66 45.33 3.32 45.66 4 46 C4.66 45.34 5.32 44.68 6 44 C6.33 54.23 6.66 64.46 7 75 C4.525 75.495 4.525 75.495 2 76 C2 77.32 2 78.64 2 80 C1.34 80 0.68 80 0 80 C0 53.6 0 27.2 0 0 Z " transform="translate(30,273)" style="fill: #593545;"/><path d="M0 0 C8.91 0 17.82 0 27 0 C27 26.4 27 52.8 27 80 C18.09 80 9.18 80 0 80 C0.33 78.68 0.66 77.36 1 76 C6.61 76 12.22 76 18 76 C18 75.34 18 74.68 18 74 C18.99 74 19.98 74 21 74 C21 63.44 21 52.88 21 42 C13.74 42 6.48 42 -1 42 C-0.67 41.34 -0.34 40.68 0 40 C1.18078125 39.93941406 2.3615625 39.87882812 3.578125 39.81640625 C5.1354277 39.73197418 6.69271879 39.64732751 8.25 39.5625 C9.02730469 39.52318359 9.80460937 39.48386719 10.60546875 39.44335938 C11.35957031 39.40146484 12.11367188 39.35957031 12.890625 39.31640625 C13.92751465 39.26141968 13.92751465 39.26141968 14.98535156 39.20532227 C17.35620639 39.0121859 17.35620639 39.0121859 21 38 C20.505 22.655 20.505 22.655 20 7 C13.4 6.67 6.8 6.34 0 6 C0.33 4.68 0.66 3.36 1 2 C0.67 1.34 0.34 0.68 0 0 Z " transform="translate(319,273)" style="fill: #583545;"/><path d="M0 0 C0.87454834 0.00523682 1.74909668 0.01047363 2.65014648 0.01586914 C3.50036377 0.0183667 4.35058105 0.02086426 5.2265625 0.0234375 C6.85742798 0.03709351 6.85742798 0.03709351 8.52124023 0.05102539 C11.96561523 0.07165039 15.40999023 0.09227539 18.95874023 0.11352539 C18.95874023 10.67352539 18.95874023 21.23352539 18.95874023 32.11352539 C11.69874023 32.11352539 4.43874023 32.11352539 -3.04125977 32.11352539 C-3.06417214 27.71689506 -3.0840981 23.32047052 -3.09619141 18.92382812 C-3.10123097 17.42707621 -3.10806264 15.93032923 -3.11669922 14.43359375 C-3.12878135 12.28652732 -3.13449168 10.13952577 -3.13891602 7.99243164 C-3.14415283 6.69893799 -3.14938965 5.40544434 -3.15478516 4.07275391 C-3.00495271 0.16712152 -3.00495271 0.16712152 0 0 Z " transform="translate(39.041259765625,278.886474609375)" style="fill: #B9A889;"/><path d="M0 0 C7.26 0 14.52 0 22 0 C22 10.23 22 20.46 22 31 C14.74 31 7.48 31 0 31 C0 20.77 0 10.54 0 0 Z " transform="translate(63,316)" style="fill: #BCAA8B;"/><path d="M0 0 C7.26 0 14.52 0 22 0 C22 10.23 22 20.46 22 31 C14.74 31 7.48 31 0 31 C0 20.77 0 10.54 0 0 Z " transform="translate(36,316)" style="fill: #BBAA8B;"/><path d="M0 0 C6.93 0 13.86 0 21 0 C21 10.56 21 21.12 21 32 C14.07 32 7.14 32 0 32 C0 21.44 0 10.88 0 0 Z " transform="translate(63,279)" style="fill: #BCAB8B;"/><path d="M0 0 C6.93 0 13.86 0 21 0 C21 10.23 21 20.46 21 31 C14.07 31 7.14 31 0 31 C0 20.77 0 10.54 0 0 Z " transform="translate(318,316)" style="fill: #C1B08F;"/><path d="M0 0 C6.93 0 13.86 0 21 0 C21 9.9 21 19.8 21 30 C14.07 30 7.14 30 0 30 C0 20.1 0 10.2 0 0 Z " transform="translate(292,316)" style="fill: #C1B08E;"/><path d="M0 0 C6.93 0 13.86 0 21 0 C21 9.9 21 19.8 21 30 C14.07 30 7.14 30 0 30 C0 20.1 0 10.2 0 0 Z " transform="translate(292,280)" style="fill: #C1B08F;"/><path d="M0 0 C6.6 0 13.2 0 20 0 C20 9.9 20 19.8 20 30 C13.4 30 6.8 30 0 30 C0 20.1 0 10.2 0 0 Z " transform="translate(319,280)" style="fill: #C0B08F;"/><path d="M0 0 C3.47914941 -0.02887814 6.95826831 -0.04675687 10.4375 -0.0625 C11.92733398 -0.07506836 11.92733398 -0.07506836 13.44726562 -0.08789062 C14.86362305 -0.09272461 14.86362305 -0.09272461 16.30859375 -0.09765625 C17.62041626 -0.10551147 17.62041626 -0.10551147 18.95874023 -0.11352539 C21 0 21 0 22 1 C22.08790975 3.29151417 22.10694038 5.58572524 22.09765625 7.87890625 C22.0962413 8.5655687 22.09482635 9.25223114 22.09336853 9.95970154 C22.08775479 12.16067801 22.07520007 14.36155409 22.0625 16.5625 C22.05748676 18.05143083 22.05292355 19.54036324 22.04882812 21.02929688 C22.03778093 24.68623075 22.02050713 28.34310558 22 32 C19.21131036 33.55993424 17.11422444 34.26226046 13.92578125 34.37890625 C13.17619141 34.41306641 12.42660156 34.44722656 11.65429688 34.48242188 C10.49510742 34.52206055 10.49510742 34.52206055 9.3125 34.5625 C4.25467362 34.30066378 4.25467362 34.30066378 0 36 C7.26 36 14.52 36 22 36 C22 46.56 22 57.12 22 68 C21.67 68 21.34 68 21 68 C21 57.77 21 47.54 21 37 C14.07 37 7.14 37 0 37 C-0.33 37.66 -0.66 38.32 -1 39 C-1.66 37.68 -2.32 36.36 -3 35 C-3.66 35.99 -4.32 36.98 -5 38 C-7.15478516 38.2487793 -7.15478516 38.2487793 -9.7890625 38.07421875 C-10.63678223 38.02612061 -11.48450195 37.97802246 -12.35791016 37.9284668 C-13.4360498 37.84894775 -14.51418945 37.76942871 -15.625 37.6875 C-19.04875 37.460625 -22.4725 37.23375 -26 37 C-26 46.9 -26 56.8 -26 67 C-19.07 67 -12.14 67 -5 67 C-5 67.33 -5 67.66 -5 68 C-12.26 68 -19.52 68 -27 68 C-27 58.1 -27 48.2 -27 38 C-28.98 38.495 -28.98 38.495 -31 39 C-31.14285714 31.57142857 -31.14285714 31.57142857 -30 28 C-29.01 28 -28.02 28 -27 28 C-27 19.09 -27 10.18 -27 1 C-26.67 1 -26.34 1 -26 1 C-26 10.9 -26 20.8 -26 31 C-20.616875 30.8453125 -20.616875 30.8453125 -15.125 30.6875 C-13.99465332 30.66260498 -12.86430664 30.63770996 -11.69970703 30.61206055 C-10.81138184 30.57894775 -9.92305664 30.54583496 -9.0078125 30.51171875 C-8.09660645 30.48553467 -7.18540039 30.45935059 -6.24658203 30.43237305 C-5.50520996 30.28968994 -4.76383789 30.14700684 -4 30 C-3.34 29.01 -2.68 28.02 -2 27 C-1.67 26.67 -1.34 26.34 -1 26 C-0.84193469 24.07521187 -0.748865 22.1450079 -0.68359375 20.21484375 C-0.64169922 19.04501953 -0.59980469 17.87519531 -0.55664062 16.66992188 C-0.51732422 15.43822266 -0.47800781 14.20652344 -0.4375 12.9375 C-0.37272461 11.08415039 -0.37272461 11.08415039 -0.30664062 9.19335938 C-0.20015802 6.12902665 -0.09814576 3.06460927 0 0 Z M1 1 C1 10.9 1 20.8 1 31 C7.6 31 14.2 31 21 31 C21 21.1 21 11.2 21 1 C14.4 1 7.8 1 1 1 Z " transform="translate(318,279)" style="fill: #795C5E;"/><path d="M0 0 C24.75 0 49.5 0 75 0 C75 1.32 75 2.64 75 4 C50.58 4 26.16 4 1 4 C1 39.97 1 75.94 1 113 C0.67 113 0.34 113 0 113 C0 75.71 0 38.42 0 0 Z " transform="translate(150,282)" style="fill: #C96E3D;"/><path d="M0 0 C0.33 0 0.66 0 1 0 C1 9.9 1 19.8 1 30 C7.93 30 14.86 30 22 30 C22 30.33 22 30.66 22 31 C15.4 31 8.8 31 2 31 C2 31.99 2 32.98 2 34 C8.6 34.33 15.2 34.66 22 35 C22 35.33 22 35.66 22 36 C15.07 36 8.14 36 1 36 C1 45.9 1 55.8 1 66 C7.93 66 14.86 66 22 66 C22 66.33 22 66.66 22 67 C14.74 67 7.48 67 0 67 C0 57.1 0 47.2 0 37 C-1.98 37.495 -1.98 37.495 -4 38 C-4.14285714 30.57142857 -4.14285714 30.57142857 -3 27 C-2.01 27 -1.02 27 0 27 C0 18.09 0 9.18 0 0 Z " transform="translate(291,280)" style="fill: #7A5D60;"/><path d="M0 0 C0.33 0 0.66 0 1 0 C1.33 9.57 1.66 19.14 2 29 C7.28 28.67 12.56 28.34 18 28 C18.33 20.08 18.66 12.16 19 4 C19.66 4 20.32 4 21 4 C21 12.91 21 21.82 21 31 C14.07 31 7.14 31 0 31 C0 20.77 0 10.54 0 0 Z " transform="translate(318,316)" style="fill: #B2A083;"/><path d="M0 0 C6.6 0 13.2 0 20 0 C20 1.32 20 2.64 20 4 C13.07 4 6.14 4 -1 4 C-0.67 2.68 -0.34 1.36 0 0 Z " transform="translate(293,311)" style="fill: #593446;"/><path d="M0 0 C3.36591866 1.44253657 5.51047079 3.33264727 8 6 C5.25 6.25 5.25 6.25 2 6 C-0.375 4 -0.375 4 -2 2 C-1.34 1.34 -0.68 0.68 0 0 Z " transform="translate(187,191)" style="fill: #EBDABD;"/><path d="M0 0 C2.31 0.66 4.62 1.32 7 2 C6.67 2.99 6.34 3.98 6 5 C6.66 5.33 7.32 5.66 8 6 C7.67 6.66 7.34 7.32 7 8 C3.75700849 5.61042731 1.49097658 3.7952131 0 0 Z " transform="translate(244,232)" style="fill: #C86836;"/><path d="M0 0 C0.66 0.66 1.32 1.32 2 2 C-3.2734375 5.22265625 -3.2734375 5.22265625 -5 6 C-5.66 5.67 -6.32 5.34 -7 5 C-4.69 3.35 -2.38 1.7 0 0 Z " transform="translate(125,239)" style="fill: #E8D6B5;"/><path d="M0 0 C0.66 0.33 1.32 0.66 2 1 C1.67 2.32 1.34 3.64 1 5 C-0.98 5 -2.96 5 -5 5 C-3.35 3.35 -1.7 1.7 0 0 Z " transform="translate(131,234)" style="fill: #EBDBC0;"/></svg>