<?xml version="1.0" standalone="no"?>
<!DOCTYPE svg PUBLIC "-//W3C//DTD SVG 20010904//EN"
 "http://www.w3.org/TR/2001/REC-SVG-20010904/DTD/svg10.dtd">
<svg version="1.0" xmlns="http://www.w3.org/2000/svg"
 width="200.000000pt" height="200.000000pt" viewBox="0 0 200.000000 200.000000"
 preserveAspectRatio="xMidYMid meet">

<g transform="translate(0.000000,200.000000) scale(0.100000,-0.100000)"
fill="#000000" stroke="none">
<path d="M224 1797 c-3 -8 -4 -47 -2 -88 3 -67 5 -75 26 -84 20 -9 23 -15 19
-47 -3 -20 -30 -92 -60 -160 -30 -67 -60 -142 -66 -164 -7 -27 -11 -194 -12
-466 -1 -470 -1 -469 64 -536 57 -60 67 -62 286 -62 l201 0 39 35 39 35 26
-35 27 -35 120 0 c117 0 121 1 144 26 14 15 39 64 57 110 l31 84 42 0 42 0 27
-69 c15 -39 41 -88 57 -110 l29 -41 121 0 c117 0 121 1 145 27 30 32 60 129
77 248 l13 90 50 5 c27 3 59 11 71 18 31 17 47 80 33 132 -15 55 -41 70 -121
70 l-67 0 5 39 c12 87 -59 240 -140 305 -32 26 -47 31 -87 30 -41 -2 -49 1
-58 21 -18 38 -73 95 -113 116 -42 21 -84 24 -123 9 -37 -14 -104 -77 -132
-126 l-25 -42 -30 15 c-37 19 -71 11 -126 -28 l-43 -30 0 50 c0 57 -28 147
-94 306 -53 128 -58 166 -21 183 23 11 25 17 25 81 0 110 22 101 -251 101
-191 0 -241 -3 -245 -13z m436 -77 l0 -30 -190 0 -190 0 0 30 0 30 190 0 190
0 0 -30z m-55 -137 c10 -58 24 -99 76 -223 26 -63 51 -127 54 -142 l7 -28
-276 0 c-152 0 -276 1 -276 3 0 19 39 124 75 201 40 87 51 118 69 199 l6 27
130 0 129 0 6 -37z m654 -347 c37 -19 89 -80 97 -112 5 -18 1 -31 -14 -47 -41
-43 -85 -155 -90 -228 l-5 -69 -46 0 -47 0 -1 63 c0 65 -23 136 -66 205 -18
27 -22 43 -16 60 24 63 102 142 141 142 11 0 32 -7 47 -14z m-509 -181 c0 -40
-8 -90 -21 -128 -14 -41 -19 -77 -16 -104 l5 -43 -53 0 c-47 0 -56 -4 -79 -31
-14 -17 -26 -37 -26 -45 0 -12 -32 -14 -185 -14 l-185 0 0 215 0 215 280 0
280 0 0 -65z m247 3 c51 -53 93 -153 93 -220 l0 -58 -156 0 -156 0 4 59 c3 42
15 81 41 135 60 120 114 146 174 84z m541 -13 c49 -56 82 -140 82 -211 l0 -54
-149 0 c-143 0 -150 1 -156 21 -18 56 35 198 95 257 48 46 79 43 128 -13z
m270 -369 c2 -24 -2 -42 -9 -47 -16 -10 -977 -12 -1089 -3 l-80 7 0 37 c0 20
3 40 7 43 3 4 268 6 587 5 l581 -3 3 -39z m-1224 -82 c14 -17 37 -29 61 -33
24 -4 40 -12 41 -21 1 -8 10 -61 20 -118 l17 -102 -33 -35 -34 -35 -180 0
c-204 0 -219 5 -263 77 -21 34 -23 50 -23 166 l0 127 185 0 186 0 23 -26z
m1066 -58 c0 -46 -32 -191 -52 -238 l-20 -48 -93 0 c-108 0 -105 -2 -161 135
l-32 80 -88 0 -89 0 -30 -85 c-49 -134 -44 -130 -152 -130 -86 0 -94 2 -108
23 -18 28 -53 161 -62 234 l-6 53 447 0 446 0 0 -24z"/>
<path d="M372 1553 c-5 -10 -12 -36 -16 -58 -4 -22 -19 -64 -33 -93 -24 -47
-25 -54 -12 -68 21 -21 42 -10 68 36 24 43 53 164 44 186 -7 20 -41 17 -51 -3z"/>
<path d="M274 1276 c-10 -26 4 -48 28 -44 17 2 23 10 23 28 0 18 -6 26 -23 28
-13 2 -25 -3 -28 -12z"/>
<path d="M432 1033 c-36 -52 -52 -92 -52 -132 0 -32 6 -44 32 -66 26 -22 39
-26 67 -21 45 7 81 46 81 89 0 18 -15 59 -34 92 -39 70 -64 80 -94 38z m58
-104 c12 -28 12 -33 -5 -45 -14 -10 -22 -11 -32 -3 -16 14 -16 30 -2 63 14 30
22 27 39 -15z"/>
</g>
</svg>
