<?xml version="1.0" standalone="no"?>
<!DOCTYPE svg PUBLIC "-//W3C//DTD SVG 20010904//EN"
 "http://www.w3.org/TR/2001/REC-SVG-20010904/DTD/svg10.dtd">
<svg version="1.0" xmlns="http://www.w3.org/2000/svg"
 width="600.000000pt" height="600.000000pt" viewBox="0 0 600.000000 600.000000"
 preserveAspectRatio="xMidYMid meet">

<g transform="translate(0.000000,600.000000) scale(0.100000,-0.100000)"
fill="#000000" stroke="none">
<path d="M121 4445 c-3 -42 71 -234 100 -261 10 -9 19 -29 19 -44 0 -78 61
-213 120 -263 68 -57 160 -82 311 -82 l127 0 -28 -35 c-173 -220 -139 -583
102 -1092 87 -183 91 -206 49 -291 -17 -35 -31 -75 -31 -90 0 -15 21 -88 46
-164 50 -148 53 -177 44 -383 -4 -86 -2 -100 20 -145 22 -43 29 -50 55 -50 24
0 34 -7 50 -38 25 -46 38 -51 146 -49 133 2 165 23 119 82 -11 14 -20 28 -20
33 0 4 22 7 49 7 48 0 111 16 111 28 0 7 -15 32 -72 124 -45 71 -62 156 -61
298 1 193 49 340 158 488 52 68 62 72 136 47 42 -13 208 -45 529 -99 80 -13
210 -27 290 -31 137 -7 159 -5 420 34 307 47 362 59 538 122 l124 44 20 -25
c50 -60 128 -260 147 -382 6 -36 23 -92 36 -123 24 -54 25 -65 23 -203 -3
-140 -2 -149 21 -189 14 -24 33 -45 43 -49 10 -3 30 -23 43 -45 14 -21 38 -45
53 -53 16 -8 40 -30 55 -49 17 -23 37 -36 60 -40 33 -5 172 7 208 18 29 10 23
38 -21 96 -49 65 -77 137 -96 244 -22 121 -4 355 45 575 21 92 47 183 57 201
36 62 47 63 280 24 115 -19 238 -41 274 -49 52 -11 151 -14 490 -13 392 2 428
3 453 20 16 10 31 25 34 33 3 8 16 14 29 14 30 0 31 2 49 115 7 50 17 100 21
112 7 27 2 29 -79 38 -45 5 -64 12 -80 32 -12 14 -38 33 -57 43 -19 10 -49 33
-66 52 -51 53 -134 188 -134 217 0 14 -18 77 -40 140 -22 63 -40 127 -40 142
0 18 14 44 40 74 22 26 46 59 54 73 16 32 116 373 116 396 0 18 -25 22 -35 6
-3 -6 -39 -36 -78 -67 -40 -31 -102 -85 -139 -122 -43 -41 -71 -62 -77 -56 -6
6 -11 32 -13 59 -2 27 -8 51 -13 53 -6 2 -51 -35 -100 -82 -50 -46 -92 -85
-95 -85 -3 0 -51 28 -105 61 -155 96 -171 104 -320 165 -523 213 -772 270
-1345 311 -528 37 -1275 11 -1688 -58 -287 -48 -486 -128 -616 -249 -42 -38
-78 -70 -80 -70 -2 0 -40 -7 -83 -15 -110 -22 -269 -30 -319 -16 -82 22 -147
92 -169 184 -7 26 -6 27 38 27 108 0 218 67 232 143 9 49 -1 99 -27 132 -19
25 -26 27 -74 23 -69 -6 -176 -58 -210 -104 -15 -18 -32 -50 -39 -70 -6 -19
-16 -36 -21 -36 -14 -2 -55 78 -85 166 -15 45 -28 76 -28 71z m416 -93 c43
-27 31 -109 -22 -150 -33 -26 -115 -52 -162 -52 -29 0 -33 3 -33 25 0 64 51
132 125 166 43 20 73 23 92 11z"/>
</g>
</svg>
