<svg xmlns="http://www.w3.org/2000/svg" viewBox="0 0 250 244" width="250" height="244">
	<style>
		tspan { white-space:pre }
		.shp0 { fill: #621b7b } 
		.shp1 { fill: #f9b118 } 
	</style>
	<g >
		<path class="shp0" d="M64.75 0.4C63.38 0.59 61.35 0.93 60.25 1.15C59.14 1.37 56.89 1.95 55.24 2.42C53.58 2.9 50.99 3.8 49.47 4.42C47.96 5.04 45.65 6.11 44.34 6.81C43.03 7.51 41.17 8.61 40.21 9.26C39.24 9.91 37.38 11.33 36.07 12.41C34.76 13.49 31.6 16.47 29.04 19.03C26.48 21.58 22.94 25.36 21.17 27.43C19.4 29.5 17.77 31.39 17.56 31.63C17.18 32.05 17 32.06 14.28 31.69C12.69 31.47 9.14 31.22 6.39 31.13C2.06 30.99 1.41 31.02 1.61 31.33C1.74 31.53 2.37 32.48 3.01 33.44C3.65 34.41 4.89 36.38 5.76 37.83C6.63 39.27 7.72 41.25 8.18 42.21C8.64 43.18 9.02 44.11 9.02 44.28C9.02 44.45 8.18 46.31 7.16 48.41C6.14 50.51 4.83 53.58 4.26 55.24C3.69 56.89 2.84 59.71 2.38 61.5C1.92 63.29 1.32 66.22 1.03 68.01C0.75 69.81 0.4 72.62 0.26 74.28C0.12 75.93 0 79.51 0 82.23C0 85.11 0.16 88.62 0.39 90.62C0.61 92.52 1.07 95.53 1.42 97.32C1.76 99.12 2.42 101.88 2.88 103.46C3.34 105.05 4.24 107.81 4.89 109.6C5.54 111.39 6.58 114.04 7.2 115.49C7.82 116.93 9.09 119.64 10.02 121.5C10.96 123.36 12.48 126.12 13.4 127.64C14.33 129.15 16.06 131.69 17.25 133.27C18.44 134.86 20.71 137.45 22.29 139.04C23.88 140.63 26.39 142.89 27.87 144.05C29.35 145.22 31.49 146.74 32.63 147.43C33.77 148.13 35.77 149.05 37.07 149.48C38.38 149.91 40.52 150.45 41.83 150.68C43.14 150.92 45.62 151.17 47.34 151.24C49.18 151.32 51.51 151.25 52.98 151.08C54.36 150.91 56.9 150.5 58.62 150.17L61.75 149.56C64.08 151.82 67.29 154.85 70.39 157.74C75.59 162.61 76.11 163.16 77.07 164.99C77.64 166.08 78.52 168.09 79.03 169.47C79.54 170.85 80.28 173.33 80.68 174.98C81.07 176.64 81.58 179.29 81.8 180.87C82.03 182.46 82.66 185.89 83.2 188.51C83.75 191.13 84.93 196.88 85.82 201.29C86.72 205.7 87.67 210.21 87.95 211.31C88.22 212.41 89.06 214.55 89.8 216.07C90.54 217.58 92.07 220.23 93.2 221.95C94.32 223.68 95.83 225.78 96.53 226.62C97.24 227.47 98.13 228.34 98.51 228.56C98.96 228.83 100.09 229.02 101.77 229.12L104.33 229.28C105.37 231.08 106.31 232.5 107.1 233.6C107.89 234.71 109.11 236.27 109.82 237.08C110.52 237.88 111.77 239.06 112.6 239.68C113.43 240.31 115.06 241.27 116.23 241.82C117.46 242.39 119.53 243.08 121.12 243.43C123.4 243.95 124.3 244.03 126.38 243.92C127.76 243.85 129.62 243.6 130.51 243.37C131.41 243.14 133.21 242.44 134.52 241.82C136.6 240.83 137.2 240.38 139.29 238.27C140.89 236.66 142.38 234.82 143.76 232.73C145.66 229.85 145.9 229.58 146.75 229.42C147.26 229.33 148.26 229.24 148.99 229.23C149.71 229.23 150.67 229.06 151.11 228.87C151.56 228.68 152.28 228.15 152.72 227.68C153.15 227.22 154.23 225.83 155.11 224.59C156 223.35 157.29 221.37 158 220.2C158.7 219.03 159.79 217 160.43 215.69C161.06 214.38 161.8 212.41 162.07 211.31C162.35 210.21 163.71 203.78 165.09 197.03C166.48 190.28 167.83 183.23 168.1 181.37C168.37 179.51 168.93 176.58 169.36 174.86C169.79 173.14 170.58 170.6 171.12 169.22C171.66 167.84 172.58 165.85 173.16 164.78C174.13 163.02 174.79 162.32 180.61 156.92C184.12 153.66 187.28 150.72 187.63 150.38L188.25 149.78C192.52 150.56 195.09 150.97 196.71 151.18C198.32 151.39 200.44 151.56 201.4 151.56C202.37 151.56 204.42 151.38 205.97 151.16C207.52 150.95 209.86 150.5 211.17 150.17C212.48 149.83 214.45 149.12 215.56 148.58C216.66 148.04 218.52 146.9 219.69 146.03C220.86 145.17 222.44 143.95 223.2 143.32C223.95 142.7 225.19 141.62 225.95 140.93C226.71 140.25 228.21 138.72 229.29 137.54C230.37 136.37 232.02 134.39 232.96 133.15C233.9 131.91 235.6 129.37 236.73 127.51C237.86 125.65 239.6 122.44 240.6 120.37C241.6 118.3 242.87 115.49 243.43 114.11C243.99 112.73 245.03 109.91 245.74 107.85C246.44 105.78 247.36 102.74 247.76 101.08C248.17 99.43 248.67 97.12 248.87 95.95C249.07 94.78 249.41 92.3 249.62 90.44C249.83 88.52 250 84.83 249.99 81.92C249.99 79.09 249.83 75.2 249.62 73.28C249.41 71.35 249.07 68.75 248.86 67.51C248.65 66.27 248.14 63.91 247.74 62.25C247.34 60.6 246.49 57.72 245.86 55.86C245.23 54 243.86 50.74 242.83 48.6C241.32 45.5 240.97 44.57 241.09 43.97C241.17 43.55 242.04 41.8 243.02 40.08C244 38.36 245.63 35.68 246.65 34.13C247.9 32.22 248.4 31.27 248.18 31.17C248.01 31.1 245.56 31.15 242.74 31.3C239.91 31.45 236.53 31.73 235.22 31.93L232.84 32.29C231.48 30.66 229.55 28.44 227.68 26.3C225.8 24.17 222.92 21.07 221.27 19.41C219.62 17.76 217.1 15.36 215.66 14.09C214.23 12.81 212.04 11.04 210.8 10.15C209.56 9.26 207.53 7.98 206.29 7.3C205.05 6.62 202.85 5.55 201.4 4.94C199.96 4.32 197.48 3.41 195.89 2.9C194.31 2.4 191.66 1.71 190.01 1.38C188.35 1.05 185.9 0.66 184.56 0.51C183.21 0.37 180.82 0.25 179.23 0.25C177.65 0.25 175.03 0.42 173.41 0.64C171.79 0.85 169.34 1.3 167.96 1.65C166.58 1.99 164.5 2.56 163.33 2.9C162.16 3.25 160.41 3.83 159.44 4.19C158.48 4.54 156.51 5.43 155.06 6.15C153.61 6.87 151.36 8.17 150.05 9.03C148.74 9.89 146.77 11.32 145.67 12.2C144.56 13.09 142.76 14.63 141.66 15.63C140.56 16.63 138.76 18.51 137.67 19.81C136.57 21.11 134.9 23.35 133.94 24.8C132.98 26.25 131.37 29.12 130.36 31.19C129.36 33.26 128.03 36.47 127.41 38.33C126.8 40.19 126.03 42.92 125.71 44.4C125.39 45.88 125.07 47.09 125 47.09C124.93 47.09 124.62 45.88 124.3 44.4C123.98 42.92 123.16 40.05 122.48 38.02C121.8 35.98 120.64 33.05 119.91 31.5C119.18 29.95 118.03 27.78 117.37 26.68C116.7 25.58 115.23 23.44 114.09 21.92C112.96 20.4 110.75 17.92 109.18 16.4C107.62 14.89 105.44 12.92 104.33 12.04C103.23 11.15 101.2 9.69 99.81 8.79C98.43 7.88 96.12 6.56 94.68 5.84C93.24 5.13 90.88 4.14 89.43 3.64C87.98 3.13 85.33 2.34 83.54 1.86C81.75 1.39 78.76 0.78 76.9 0.5C74.77 0.19 72.37 0.01 70.39 0.03C68.67 0.05 66.13 0.21 64.75 0.4Z" />
		<path class="shp1" d="M76.9 13.61C76.28 13.77 75.17 14.3 74.42 14.78C73.67 15.26 72.66 16.12 72.17 16.68C71.67 17.24 70.91 18.37 70.46 19.19C69.93 20.18 69.37 21.93 68.77 24.49C68.28 26.59 67.77 29.35 67.62 30.63C67.48 31.9 67.25 33.42 67.12 34.01C66.99 34.59 66.73 35.44 66.54 35.89C66.35 36.33 65.95 36.93 65.65 37.2C65.35 37.48 64.93 38.27 64.73 38.95C64.53 39.64 64.28 41.39 64.18 42.84L64 45.47C62.88 44.3 62.26 43.35 61.9 42.59C61.34 41.4 61.26 40.91 61.29 38.95C61.31 37.37 61.48 36.25 61.85 35.2C62.14 34.37 62.38 33.16 62.38 32.5C62.38 31.85 62.09 30.44 61.73 29.37C61.38 28.3 60.77 26.81 60.39 26.05C59.89 25.09 59.59 23.96 59.38 22.3C59.22 20.99 58.92 19.3 58.72 18.54C58.53 17.78 58.23 17.03 58.06 16.87C57.81 16.64 57.07 17.03 54.75 18.62C53.04 19.79 51.5 21.04 51.16 21.54C50.84 22.03 50.39 23.04 50.16 23.8C49.86 24.81 49.76 26.03 49.79 28.43C49.81 30.48 50.02 32.72 50.34 34.45C50.62 35.96 50.85 37.76 50.85 38.45C50.85 39.14 51.08 40.38 51.36 41.21C51.64 42.04 52.32 43.47 52.86 44.4C53.41 45.33 53.83 46.15 53.8 46.21C53.76 46.27 52.24 45.34 50.43 44.14C47.82 42.43 46.88 41.64 45.98 40.46C45.35 39.63 44.4 38.11 43.86 37.08C43.33 36.04 42.52 34.01 42.08 32.57C41.64 31.12 41.2 29.65 41.1 29.31C40.93 28.72 40.7 28.9 36.93 32.6L32.94 36.52C41.29 40.69 44.9 42.64 46.34 43.54C47.79 44.44 49.76 45.76 50.73 46.47C51.69 47.18 53.66 48.77 55.11 50.01C56.56 51.26 59.21 53.79 61 55.65C62.79 57.5 65.2 60.2 66.37 61.64C67.53 63.08 69.41 65.67 70.54 67.39C71.67 69.11 73.34 71.87 74.25 73.53C75.16 75.18 76.43 77.77 77.07 79.29C77.71 80.8 78.94 84.07 79.8 86.55C80.66 89.03 81.65 92.36 82 93.94C82.36 95.53 82.88 98.85 83.17 101.33C83.46 103.81 83.76 107.42 83.84 109.35C83.92 111.28 83.85 114.55 83.7 116.61C83.54 118.68 83.08 122.06 82.66 124.13C82.24 126.2 81.72 128.45 81.5 129.14C81.28 129.83 80.44 131.69 79.63 133.27C78.82 134.86 77.5 137.02 76.71 138.08C75.92 139.14 74.57 140.8 73.71 141.77L72.14 143.54C80.98 150.29 84.11 152.75 84.79 153.38C85.56 154.06 86.36 155.13 86.85 156.1C87.29 156.98 88.26 160 89.02 162.83C89.78 165.66 90.75 168.93 91.17 170.1C91.59 171.27 92.32 172.9 92.77 173.73C93.24 174.57 93.98 175.49 94.46 175.8C94.93 176.12 95.65 176.37 96.07 176.37C96.48 176.37 97.55 176.01 98.45 175.57C99.53 175.04 100.66 174.18 101.83 173C102.79 172.02 104.16 170.38 104.87 169.34C105.58 168.31 107.37 165.16 108.84 162.33C110.32 159.51 112 156.46 112.59 155.57C113.18 154.67 113.84 153.86 114.07 153.75C114.29 153.65 114.59 153.62 114.73 153.69C114.89 153.77 114.98 159.83 114.98 171.1L114.98 188.39C107.95 188.12 106.68 188.18 105.21 188.48C104.18 188.7 102.54 189.27 101.58 189.75C100.61 190.23 99.26 191.11 98.57 191.71C97.88 192.32 96.87 193.48 96.33 194.29C95.79 195.11 95.13 196.45 94.87 197.28C94.47 198.53 94.42 199.3 94.52 201.79C94.62 204.22 94.82 205.42 95.55 208.05C96.08 209.97 96.96 212.34 97.69 213.81C98.38 215.19 99.84 217.53 100.94 219.01L102.96 221.7C106.94 221.7 109.35 221.62 110.9 221.52L113.7 221.33C114.11 219.68 114.23 218.64 114.23 217.95C114.23 217.26 114.05 215.82 113.83 214.75C113.61 213.68 113.08 211.97 112.65 210.93C112.03 209.44 111.51 208.69 110.11 207.28C109.04 206.21 107.44 204.97 106.09 204.17C104.85 203.43 103.55 202.83 103.21 202.83C102.86 202.84 102.03 202.94 101.37 203.07L100.15 203.29C100.42 202.13 100.77 201.2 101.1 200.47C101.43 199.75 102.01 198.94 102.39 198.68C102.77 198.42 103.79 197.97 104.65 197.68C106.02 197.22 106.41 197.19 107.78 197.42C108.64 197.56 109.91 197.86 110.6 198.07C111.29 198.29 112.47 198.82 113.23 199.24C113.98 199.67 116.94 202.14 119.8 204.72C124.95 209.39 125 209.43 125.55 208.99C125.86 208.75 127.78 207.03 129.82 205.17C131.86 203.31 134.12 201.31 134.84 200.73C135.56 200.15 136.71 199.39 137.4 199.04C138.09 198.7 139.61 198.17 140.78 197.88C142.01 197.57 143.34 197.39 143.91 197.46C144.46 197.53 145.59 197.91 146.41 198.31C147.23 198.71 148.11 199.31 148.36 199.66C148.61 200 149.03 200.91 149.29 201.66C149.55 202.42 149.69 203.13 149.6 203.24C149.5 203.35 148.75 203.3 147.92 203.13L146.42 202.82C142.36 205.32 140.56 206.67 139.79 207.44C139.03 208.2 138.11 209.44 137.74 210.19C137.38 210.94 136.84 212.35 136.54 213.31C136.24 214.28 135.93 215.97 135.85 217.07C135.76 218.28 135.82 219.57 135.99 220.33L136.29 221.58L146.67 221.93C148.33 220.1 149.37 218.79 150.04 217.82C150.71 216.86 151.77 215 152.4 213.69C153.03 212.38 153.82 210.35 154.15 209.18C154.49 208.01 154.94 206.18 155.16 205.11C155.38 204.04 155.56 202.21 155.56 201.04C155.56 199.7 155.39 198.37 155.11 197.47C154.87 196.67 154.28 195.42 153.8 194.67C153.32 193.93 152.31 192.74 151.55 192.04C150.78 191.34 149.43 190.41 148.54 189.96C147.65 189.52 146.13 188.98 145.17 188.75C143.8 188.43 142.49 188.36 139.28 188.42L135.15 188.51C135.04 161.91 135.07 154.05 135.14 153.88C135.24 153.65 135.41 153.63 135.77 153.82C136.05 153.95 136.74 154.77 137.32 155.63C137.9 156.49 139.51 159.4 140.9 162.08C142.28 164.77 143.95 167.76 144.59 168.72C145.23 169.69 146.37 171.21 147.11 172.1C147.86 173 149.29 174.29 150.29 174.98C151.91 176.09 152.29 176.25 153.65 176.33L155.19 176.42C156.72 174.72 157.46 173.56 157.84 172.73C158.21 171.9 158.86 170.13 159.29 168.78C159.72 167.44 160.58 164.42 161.2 162.08C161.82 159.74 162.62 157.23 162.99 156.51C163.35 155.78 163.94 154.81 164.3 154.34C164.66 153.88 165.53 153.09 166.22 152.59C166.92 152.09 169.81 149.88 172.65 147.68L177.81 143.67C174.92 140.37 173.38 138.4 172.54 137.16C171.69 135.92 170.45 133.77 169.8 132.4C169.13 130.99 168.32 128.74 167.95 127.26C167.6 125.81 167.08 123.33 166.82 121.75C166.51 119.95 166.27 116.99 166.18 113.86C166.05 109.72 166.12 107.98 166.56 103.84C166.85 101.08 167.26 97.81 167.47 96.57C167.68 95.33 168.14 93.25 168.49 91.94C168.85 90.63 169.86 87.53 170.75 85.05C171.65 82.53 173.34 78.55 174.59 76.03C175.9 73.36 177.83 69.99 179.32 67.76C180.69 65.7 182.46 63.22 183.23 62.25C184.01 61.29 185.97 59.03 187.59 57.24C189.21 55.45 191.95 52.75 193.67 51.23C195.39 49.71 197.69 47.8 198.79 46.98C199.88 46.15 201.85 44.8 203.16 43.97C204.47 43.15 208.1 41.17 211.24 39.59L216.94 36.7C211.11 30.78 209.33 29.06 209.23 29.06C209.13 29.06 208.6 30.49 208.05 32.25C207.51 34.01 206.69 36.18 206.24 37.08C205.79 37.97 204.85 39.47 204.16 40.4C203.1 41.82 202.39 42.42 199.65 44.22C197.86 45.39 196.28 46.34 196.14 46.34C196 46.34 196.22 45.87 196.62 45.28C197.03 44.69 197.72 43.43 198.17 42.46C198.85 41 199.02 40.27 199.18 38.08C199.29 36.63 199.49 35.05 199.64 34.57C199.78 34.09 200 32.34 200.12 30.69C200.24 29.03 200.25 26.95 200.15 26.05C200.05 25.16 199.81 23.93 199.62 23.33C199.43 22.73 198.98 21.88 198.63 21.45C198.27 21.02 196.8 19.86 195.37 18.87C193.93 17.89 192.59 17.01 192.38 16.92C192.11 16.8 191.88 17.05 191.55 17.83C191.3 18.43 190.92 20.21 190.71 21.79C190.45 23.83 190.15 25.05 189.7 25.93C189.34 26.62 188.73 28.14 188.33 29.31C187.93 30.49 187.6 32 187.6 32.69C187.59 33.38 187.77 34.45 187.99 35.07C188.21 35.69 188.51 36.93 188.64 37.83C188.82 38.96 188.81 39.92 188.62 40.96C188.46 41.79 188.08 42.91 187.76 43.46C187.43 44.02 186.91 44.71 186.58 45.02L186 45.57C185.73 41.61 185.49 39.95 185.31 39.33C185.12 38.71 184.62 37.75 184.18 37.2C183.75 36.65 183.23 35.58 183.03 34.82C182.83 34.06 182.54 32.32 182.37 30.94C182.21 29.56 181.7 26.8 181.25 24.8C180.77 22.71 180.1 20.53 179.67 19.67C179.26 18.84 178.36 17.54 177.68 16.78C176.99 16.03 175.76 15.04 174.95 14.6C174.14 14.16 172.96 13.72 172.34 13.63C171.64 13.52 170.74 13.58 169.96 13.79C169.08 14.03 168.37 14.47 167.55 15.27L166.38 16.41C167.28 20.68 167.67 22.79 167.82 23.86C167.96 24.93 168.34 26.45 168.64 27.24C168.97 28.11 169.57 29.03 170.13 29.56C170.65 30.04 171.65 31 172.35 31.69C173.32 32.63 173.99 33.68 175.1 35.95C175.9 37.6 177.08 40.28 177.71 41.9C178.34 43.52 178.86 44.9 178.86 44.97C178.86 45.04 178.75 45.06 178.63 45.03C178.5 45 177.74 44.1 176.94 43.05C176.13 42 174.63 40.26 173.6 39.19C172.19 37.73 170.94 36.77 168.59 35.35C166.86 34.31 164.61 32.82 163.58 32.05C162.54 31.28 160.51 29.37 159.07 27.81C157.62 26.25 155.99 24.65 155.44 24.25C154.81 23.81 154.12 23.54 153.62 23.54C153.17 23.55 152.5 23.71 152.12 23.9C151.74 24.1 151.02 24.69 150.52 25.22C150.03 25.75 149.28 26.69 148.87 27.31C148.45 27.93 147.76 29.14 147.33 30C146.9 30.86 146.54 31.65 146.53 31.75C146.53 31.86 147.07 32.16 147.72 32.43C148.38 32.7 149.71 33.45 150.68 34.09C151.64 34.74 153.02 35.9 153.74 36.67C154.47 37.45 155.35 38.73 155.69 39.52C156.04 40.31 156.58 41.46 156.88 42.07C157.26 42.81 157.9 43.49 158.82 44.13C159.58 44.65 161.18 45.48 162.39 45.96C163.59 46.45 164.89 46.85 165.27 46.84C165.65 46.84 166.75 47.22 167.71 47.68C168.67 48.13 170.14 48.97 170.97 49.52C171.79 50.08 173.01 51.12 173.66 51.82C174.31 52.53 175.25 53.93 175.73 54.93C176.21 55.92 176.68 57.19 176.77 57.74L176.93 58.75C174.06 56.04 172.38 54.72 171.34 54.05C170.31 53.39 168.59 52.57 167.52 52.23C166.24 51.82 165 51.61 163.89 51.61C162.96 51.61 161.18 51.79 159.94 52.01C158.2 52.32 157.46 52.35 156.69 52.14C156.14 51.99 154.45 51.08 152.93 50.1C151.42 49.13 148.77 47.62 147.04 46.75C145.32 45.87 143.24 44.93 142.41 44.66C141.58 44.38 140.62 44.09 140.28 44C139.66 43.85 139.61 43.96 137.11 50.92C135.71 54.81 134.59 58.02 134.61 58.05C134.63 58.08 135.38 57.98 136.27 57.84C137.17 57.69 138.8 57.64 139.9 57.72C141.01 57.8 142.53 58.04 143.29 58.24C144.04 58.44 145.34 58.95 146.17 59.36C146.99 59.77 148.8 60.96 150.18 62C151.72 63.17 153.34 64.68 154.4 65.95C155.34 67.09 156.47 68.24 156.9 68.51C157.34 68.79 158.56 69.38 159.63 69.83C160.7 70.28 161.58 70.73 161.59 70.83C161.6 70.94 161.12 71.18 160.53 71.37C159.85 71.59 158.35 71.72 156.56 71.72C153.8 71.73 153.54 71.68 150.05 70.53C147.17 69.58 145.95 69.31 144.16 69.2C142.52 69.11 141.53 69.18 140.53 69.47C139.41 69.79 138.51 70.41 135.77 72.7C133.91 74.25 131.09 76.76 129.51 78.27C127.92 79.78 126.27 81.36 125.83 81.78L125.03 82.54C118.7 76.46 115.51 73.58 113.85 72.22C112.2 70.85 110.4 69.58 109.84 69.38C109.2 69.15 107.94 69.03 106.34 69.05C104.06 69.07 103.5 69.18 100.2 70.27C97.23 71.24 96.13 71.48 94.19 71.58C92.88 71.65 91.24 71.59 90.56 71.45C89.87 71.3 88.97 71.05 88.55 70.9C87.81 70.62 87.84 70.59 90.43 69.57C92.08 68.92 93.34 68.24 93.81 67.76C94.23 67.34 95.25 66.21 96.08 65.25C96.92 64.29 98.61 62.74 99.84 61.81C101.07 60.88 102.81 59.73 103.71 59.26C104.6 58.79 106.12 58.21 107.09 57.99C108.14 57.74 109.85 57.58 111.35 57.59C112.73 57.6 114.22 57.72 114.67 57.86C115.11 58 115.48 58.09 115.48 58.06C115.48 58.02 114.35 54.84 112.97 50.98C111.59 47.12 110.47 43.91 110.47 43.84C110.48 43.77 110.06 43.8 109.54 43.9C109.02 44 107.58 44.48 106.34 44.96C105.1 45.44 102.73 46.6 101.08 47.55C99.42 48.5 97.17 49.86 96.07 50.57C94.96 51.29 93.67 51.94 93.19 52.02C92.7 52.1 91.86 52.11 91.31 52.03C90.76 51.96 89.4 51.75 88.3 51.57C86.78 51.33 85.91 51.32 84.67 51.53C83.77 51.68 82.42 52.03 81.66 52.32C80.91 52.6 79.44 53.39 78.41 54.06C77.37 54.74 75.76 56.01 74.82 56.89L73.11 58.49C73.32 56.94 73.76 55.7 74.23 54.74C74.7 53.77 75.58 52.43 76.18 51.76C76.78 51.08 77.9 50.11 78.66 49.59C79.42 49.08 80.88 48.24 81.91 47.72C82.95 47.2 84.41 46.68 85.17 46.56C85.93 46.44 87.59 45.84 88.87 45.22C90.25 44.54 91.61 43.66 92.25 43.03C92.98 42.29 93.45 41.53 93.74 40.58C93.97 39.83 94.53 38.65 94.99 37.96C95.44 37.28 96.56 36.09 97.46 35.33C98.37 34.57 99.92 33.52 100.91 33.01C101.9 32.49 102.87 32.07 103.08 32.07C103.29 32.07 103.46 31.95 103.46 31.82C103.46 31.68 102.95 30.58 102.33 29.37C101.72 28.17 100.7 26.53 100.08 25.74C99.45 24.94 98.5 24.08 97.95 23.8C97.39 23.52 96.69 23.3 96.38 23.29C96.07 23.29 95.31 23.61 94.69 24C94.07 24.39 92.61 25.77 91.45 27.07C90.29 28.37 88.71 29.98 87.95 30.65C87.18 31.31 85.48 32.56 84.17 33.42C82.86 34.29 80.95 35.49 79.93 36.1C78.75 36.8 77.38 37.94 76.17 39.22C75.13 40.33 73.6 42.13 72.78 43.22C71.96 44.32 71.25 45.1 71.21 44.97C71.16 44.83 71.7 43.25 72.4 41.46C73.11 39.67 74.26 37.02 74.95 35.57C76.08 33.21 76.45 32.71 78.52 30.69C80.45 28.81 80.93 28.19 81.39 26.93C81.7 26.1 82.05 24.64 82.17 23.67C82.29 22.71 82.62 20.88 82.9 19.6C83.18 18.33 83.42 17 83.42 16.66C83.42 16.25 83.05 15.68 82.35 15.01C81.67 14.36 80.84 13.87 80.04 13.63C79.35 13.43 78.61 13.28 78.41 13.29C78.2 13.3 77.52 13.45 76.9 13.61ZM11.55 37.3C11.53 37.45 12.56 39.13 13.84 41.02C15.11 42.92 17.55 46.33 19.25 48.6C20.96 50.87 23.15 53.69 24.13 54.86C25.11 56.03 26.53 57.71 27.3 58.58L28.68 60.16C34.36 59.88 35.18 59.74 36.2 59.26C37.02 58.87 37.94 58.11 38.89 57.02C39.68 56.11 40.44 55.42 40.58 55.49C40.72 55.56 40.83 56.15 40.83 56.8C40.83 57.46 40.54 59.06 40.2 60.37C39.85 61.68 39.22 63.49 38.79 64.38C38.37 65.28 37.42 66.71 36.67 67.58C35.93 68.44 35.36 69.28 35.4 69.45C35.44 69.63 36.09 69.98 36.84 70.25C37.96 70.65 38.93 70.74 42.21 70.75C46.19 70.77 46.23 70.76 48.85 69.86C50.29 69.35 51.53 68.99 51.6 69.05C51.67 69.11 51.41 69.8 51.02 70.59C50.63 71.38 50.01 72.46 49.64 73C49.27 73.54 48.45 74.33 47.81 74.76C47.18 75.18 45.88 76.09 44.93 76.76C43.99 77.44 42.73 78.37 42.15 78.83C41.56 79.29 41.08 79.78 41.08 79.91C41.08 80.05 41.28 80.27 41.52 80.39C41.76 80.51 43.09 80.75 44.46 80.92C46.24 81.13 48.25 81.65 51.35 82.67C53.76 83.47 55.77 84.22 55.81 84.34C55.85 84.45 55.62 84.94 55.31 85.43C54.96 85.95 54.23 86.55 53.48 86.91C52.38 87.44 51.64 87.55 47.34 87.82C44.66 87.99 42.15 88.25 41.77 88.4C41.39 88.56 41.01 88.88 40.93 89.12C40.84 89.39 41.06 89.93 41.5 90.52C41.89 91.06 43.27 92.41 44.56 93.53C45.85 94.65 47.28 96.08 47.74 96.7C48.19 97.32 48.86 98.56 49.22 99.45C49.58 100.35 49.81 101.11 49.73 101.14C49.66 101.18 49.23 100.99 48.79 100.72C48.34 100.45 46.84 99.94 45.47 99.58C44.06 99.21 42.6 98.65 42.15 98.31C41.7 97.97 41.34 97.62 41.34 97.51C41.35 97.41 41.06 97.01 40.71 96.64C40.24 96.12 39.85 95.95 39.14 95.95C38.62 95.96 37.72 96.18 37.14 96.45C36.5 96.75 35.92 97.25 35.7 97.7C35.49 98.11 35.32 98.79 35.32 99.2C35.32 99.62 35.41 100.14 35.51 100.37C35.61 100.6 36.42 101.36 37.31 102.06C38.2 102.76 39.49 104.03 40.19 104.87C40.89 105.71 41.76 107.01 42.13 107.75C42.53 108.56 42.96 110.08 43.19 111.54C43.41 112.88 43.82 114.69 44.11 115.55C44.4 116.41 44.98 117.79 45.4 118.62C45.82 119.44 46.56 120.74 47.06 121.49C47.56 122.25 48.62 123.57 49.41 124.44C50.2 125.3 50.74 126.06 50.6 126.13C50.46 126.2 49.59 126.04 48.66 125.77C47.73 125.5 46.29 124.85 45.47 124.31C44.64 123.78 43.52 122.96 42.98 122.48C42.44 122.01 41.36 120.84 40.59 119.87C39.82 118.91 38.84 117.5 38.41 116.74C37.82 115.7 37.26 115.13 36.16 114.45C35.35 113.95 33.96 112.76 33.06 111.82C32.16 110.87 30.98 109.31 30.43 108.35C29.89 107.38 29.12 105.69 28.73 104.59C28.34 103.49 27.87 101.51 27.68 100.21C27.37 98.16 27.38 97.62 27.68 96.32C27.88 95.5 28.27 93.41 28.55 91.69C28.83 89.97 29.06 87.77 29.05 86.8C29.05 85.84 28.88 84.32 28.67 83.42C28.45 82.53 27.93 80.78 27.51 79.54C27.09 78.3 26.1 75.93 25.31 74.28C24.53 72.62 22.54 69.13 20.88 66.51C19.23 63.89 17.63 61.33 17.33 60.81C17.03 60.3 16.67 59.87 16.53 59.87C16.4 59.87 16.05 60.92 15.76 62.19C15.47 63.46 15.03 65.97 14.77 67.76C14.52 69.56 14.19 72.46 14.04 74.21C13.9 75.97 13.78 80.03 13.78 83.23C13.78 86.44 13.89 90.3 14.03 91.81C14.17 93.33 14.47 95.64 14.69 96.95C14.9 98.26 15.35 100.34 15.67 101.58C15.99 102.82 16.83 105.36 17.53 107.22C18.24 109.08 19.34 111.73 19.99 113.11C20.63 114.48 21.65 116.51 22.26 117.62C22.86 118.72 24.16 120.86 25.15 122.38C26.15 123.89 28.09 126.48 29.47 128.14C30.86 129.79 33.16 132.26 34.59 133.62C36.03 134.99 37.79 136.54 38.51 137.07C39.76 137.98 39.86 138.01 40.46 137.66C40.93 137.37 41.08 137.07 41.08 136.4C41.08 135.92 40.84 135.05 40.55 134.46C40.25 133.88 39.59 132.78 39.08 132.02C38.57 131.26 37.95 130.25 37.7 129.77C37.46 129.28 37.25 128.38 37.23 127.76C37.22 127.09 37.39 126.35 37.64 125.95L38.08 125.26C41.09 128.03 43.82 130.32 46.09 132.14C48.37 133.95 51.13 136.11 52.23 136.92C54.23 138.41 54.23 138.41 56.24 138.5C57.34 138.55 58.86 138.47 59.62 138.32C60.54 138.14 61.23 137.82 61.7 137.35C62.09 136.97 62.51 136.26 62.63 135.78C62.78 135.22 62.76 134.21 62.59 133.02C62.45 131.99 62.18 130.86 61.99 130.52C61.81 130.17 61.12 129.37 60.45 128.73C59.79 128.1 58.17 126.76 56.86 125.76C55.55 124.76 53.83 123.31 53.03 122.53C52.23 121.76 51.26 120.62 50.86 120C50.47 119.38 49.99 118.39 49.81 117.81C49.62 117.23 49.56 116.69 49.66 116.62C49.77 116.55 50.67 117.08 51.67 117.81C52.66 118.53 54.61 119.7 55.99 120.41C57.36 121.12 59.62 122.09 61 122.57C62.37 123.05 64.23 123.91 65.13 124.48C66.03 125.05 67.12 125.63 67.57 125.77C68.19 125.95 68.54 125.92 69.01 125.63C69.41 125.39 69.83 124.73 70.16 123.82C70.45 123.02 70.75 121.87 70.83 121.25C70.96 120.27 70.87 119.96 70.18 118.87C69.74 118.18 69.38 117.53 69.38 117.43C69.39 117.32 68.97 117.03 68.45 116.76C67.93 116.5 66.55 116.11 65.38 115.9C64.21 115.69 62.63 115.44 61.87 115.36C61.12 115.27 59.76 115.02 58.87 114.81C57.97 114.59 56.45 114.02 55.49 113.54C54.4 112.99 53.16 112.08 52.2 111.13C51.36 110.29 50.43 109.12 50.14 108.53C49.84 107.95 49.6 107.36 49.6 107.22C49.6 107.08 50.19 107.3 50.91 107.7C51.64 108.1 52.96 108.64 53.86 108.89C55.21 109.26 56.21 109.33 59.74 109.25C62.09 109.2 65.42 109.15 67.15 109.13C69.75 109.1 70.4 109.17 70.97 109.54C71.34 109.78 71.69 109.95 71.75 109.91C71.8 109.88 72 109.15 72.18 108.28C72.47 106.93 72.47 106.57 72.14 105.65C71.78 104.61 71.72 104.57 69.01 103.48C66.81 102.59 65.96 102.37 64.75 102.37C63.93 102.37 62.18 102.46 60.87 102.58C59 102.74 58.2 102.7 57.11 102.39C56.36 102.17 55.23 101.62 54.61 101.15C53.99 100.68 53.14 99.77 52.73 99.12C52.32 98.48 52.04 97.9 52.1 97.85C52.17 97.79 53.19 97.96 54.36 98.22C55.53 98.47 57.22 98.76 58.12 98.86C59.68 99.03 59.78 99 60.75 98.25C61.3 97.82 62.31 97.23 63 96.93C63.9 96.53 64.71 96.39 65.88 96.41C66.78 96.42 67.9 96.55 68.39 96.69C68.87 96.83 69.74 96.95 70.33 96.95C71.26 96.95 71.44 96.86 71.77 96.2C71.98 95.78 72.14 94.97 72.14 94.38C72.14 93.8 71.99 92.75 71.81 92.06C71.55 91.03 71.38 90.8 70.88 90.73C70.54 90.69 69.42 90.89 68.39 91.17C67.35 91.46 66.25 91.69 65.94 91.69C65.63 91.69 64.9 91.45 64.32 91.15C63.73 90.85 62.69 90.45 62 90.26C61.31 90.07 59.53 89.84 58.05 89.74C56.57 89.64 55.36 89.47 55.36 89.37C55.36 89.27 56.52 88.63 57.93 87.96C59.34 87.29 61.31 86.44 62.31 86.08C63.31 85.72 65.23 85.25 66.57 85.03C67.91 84.82 69.15 84.59 69.33 84.53C69.55 84.45 69.29 83.56 68.43 81.48C67.4 78.96 67.14 78.52 66.62 78.45C66.28 78.41 65.27 78.63 64.38 78.95C63.15 79.39 62.26 79.52 60.75 79.5C59.64 79.48 58.01 79.28 57.11 79.05C56.22 78.82 54.72 78.39 53.79 78.08C52.85 77.78 52.1 77.48 52.11 77.41C52.12 77.34 52.94 76.79 53.93 76.18C54.92 75.57 56.86 74.25 58.24 73.24C59.62 72.23 61.13 71.1 61.59 70.71L62.44 70.02C60.65 66.52 59.79 65.14 59.38 64.7C58.72 63.99 58.49 63.9 57.68 64.01C57.16 64.08 56.23 64.2 55.61 64.28C54.7 64.41 54.07 64.28 52.35 63.62C50.73 63 49.96 62.84 49.1 62.93C48.48 62.99 47.01 63.51 45.84 64.08C44.67 64.65 43.57 65.12 43.4 65.13C43.22 65.13 43.09 64.83 43.09 64.44C43.09 64.07 43.6 62.85 44.22 61.75C44.85 60.65 46.2 58.56 47.23 57.12L49.1 54.49C47.64 53 46.2 51.79 44.96 50.84C43.72 49.9 41.47 48.38 39.95 47.47C38.44 46.57 36.92 45.77 36.57 45.69C36.1 45.58 35.77 45.73 35.23 46.26C34.84 46.65 33.33 48.55 31.88 50.48C30.42 52.41 29.14 54.01 29.02 54.05C28.9 54.08 28.67 53.69 28.5 53.17C28.28 52.51 28.21 50.68 28.26 46.97C28.32 42.86 28.27 41.65 28.01 41.44C27.83 41.29 27 40.93 26.18 40.64C25.35 40.35 23.38 39.72 21.79 39.25C20.21 38.77 17.73 38.15 16.28 37.87C14.84 37.59 13.19 37.28 12.61 37.19C11.94 37.09 11.57 37.13 11.55 37.3ZM234.09 37.93C232.58 38.24 230.32 38.79 229.08 39.15C227.84 39.5 225.7 40.18 224.32 40.65L221.82 41.51C221.73 50.21 221.59 53.1 221.45 53.55C221.31 54 221.09 54.33 220.96 54.3C220.84 54.26 219.79 52.94 218.65 51.36C217.5 49.77 215.93 47.8 215.15 46.97L213.75 45.47C209.52 47.91 207.32 49.32 206.13 50.17C204.94 51.03 203.24 52.37 202.37 53.14L200.78 54.55C201.87 56.05 202.96 57.62 203.89 59C204.83 60.37 205.89 62.09 206.25 62.82C206.62 63.54 206.91 64.36 206.91 64.63C206.91 64.91 206.83 65.18 206.73 65.25C206.62 65.31 205.47 64.85 204.16 64.24C202 63.22 201.64 63.12 200.28 63.21C199.45 63.26 197.87 63.63 196.77 64.02C194.9 64.68 194.69 64.71 193.64 64.4C193.02 64.22 192.31 64 192.08 63.92C191.77 63.8 191.36 64.06 190.7 64.77C190.18 65.33 189.28 66.69 188.7 67.78C188.12 68.87 187.64 69.88 187.63 70.02C187.63 70.16 188.5 70.96 189.57 71.81C190.63 72.65 192.97 74.31 194.76 75.49L198.02 77.64C196.86 78.07 195.56 78.48 194.39 78.83C193.03 79.23 191.35 79.5 189.75 79.59C187.59 79.7 187.07 79.65 185.93 79.19C185.21 78.9 184.2 78.66 183.68 78.67L182.74 78.67C180.92 83.23 180.41 84.57 180.44 84.6C180.46 84.63 181.75 84.88 183.3 85.17C184.85 85.45 186.88 85.95 187.81 86.29C188.74 86.62 190.74 87.49 192.26 88.21L195.02 89.52C191.91 89.84 190.22 90.05 189.25 90.2C188.29 90.34 186.88 90.75 186.12 91.1C185.36 91.45 184.35 91.73 183.87 91.73C183.39 91.73 182.31 91.55 181.49 91.32C180.66 91.09 179.65 90.93 179.24 90.98C178.61 91.05 178.45 91.22 178.19 92.06C178.03 92.61 177.88 93.69 177.87 94.44C177.84 95.53 177.96 95.97 178.41 96.54C178.9 97.15 179.12 97.24 179.86 97.14C180.34 97.07 181.64 96.87 182.74 96.69C184.48 96.41 184.93 96.42 186.12 96.77C186.88 96.98 188.12 97.63 188.88 98.19C190.2 99.18 190.31 99.21 191.63 99.06C192.39 98.98 194.03 98.69 195.27 98.43C196.51 98.16 197.6 97.95 197.71 97.95C197.81 97.95 197.68 98.37 197.42 98.89C197.15 99.41 196.5 100.25 195.98 100.76C195.45 101.27 194.45 101.93 193.76 102.24C192.81 102.66 192.02 102.8 190.51 102.81C189.4 102.81 187.54 102.72 186.37 102.61C184.26 102.4 184.22 102.41 181.49 103.44C179.97 104.01 178.53 104.67 178.29 104.91C178.05 105.15 177.78 105.79 177.7 106.34C177.61 106.89 177.67 107.99 177.82 108.79C178.1 110.21 178.11 110.22 178.67 109.85C178.98 109.64 179.99 109.36 180.92 109.22C182.18 109.04 183.65 109.07 186.69 109.36C189.04 109.59 191.5 109.69 192.51 109.59C193.47 109.51 195 109.27 195.89 109.07C196.79 108.86 198.14 108.37 198.9 107.96C199.66 107.56 200.3 107.28 200.34 107.35C200.37 107.41 200.1 108.06 199.74 108.79C199.37 109.51 198.49 110.66 197.79 111.35C197.08 112.04 196 112.91 195.39 113.27C194.77 113.64 193.42 114.22 192.38 114.57C191.35 114.92 189.15 115.38 187.5 115.59C185.85 115.8 183.93 116.12 183.24 116.3C182.55 116.48 181.68 116.82 181.3 117.05C180.92 117.29 180.54 117.69 180.44 117.93C180.35 118.17 180.01 118.68 179.69 119.06C179.31 119.51 179.11 120.07 179.1 120.68C179.1 121.2 179.32 122.36 179.6 123.25C179.87 124.15 180.27 125.13 180.48 125.44C180.73 125.82 181.11 126.01 181.61 126.01C182.03 126.01 182.84 125.77 183.43 125.47C184.01 125.18 184.94 124.63 185.5 124.26C186.05 123.88 187.29 123.32 188.25 123C189.22 122.69 190.91 122.03 192.01 121.55C193.11 121.06 194.69 120.27 195.52 119.78C196.34 119.29 197.72 118.35 198.58 117.69C199.45 117.03 200.21 116.6 200.28 116.74C200.34 116.88 200.33 117.3 200.24 117.68C200.15 118.06 199.82 118.87 199.51 119.49C199.2 120.11 198.46 121.18 197.86 121.85C197.26 122.53 195.09 124.39 193.04 125.99C190.98 127.58 188.99 129.28 188.59 129.77C188.2 130.25 187.75 131.21 187.59 131.9C187.42 132.58 187.28 133.84 187.27 134.7C187.25 135.88 187.37 136.41 187.77 136.95C188.05 137.34 188.73 137.88 189.27 138.15C190.06 138.55 190.78 138.65 192.89 138.65C195.48 138.66 195.53 138.65 196.77 137.8C197.46 137.32 199.04 136.14 200.28 135.17C201.52 134.2 203.94 132.26 205.66 130.86C207.38 129.46 209.47 127.68 210.3 126.9L211.8 125.49C212.63 126.51 212.71 126.95 212.64 128.14C212.55 129.49 212.38 129.9 210.94 132.15C210.05 133.52 209.18 135.13 209 135.72C208.77 136.46 208.74 136.93 208.92 137.28C209.06 137.56 209.45 137.84 209.79 137.91C210.27 138 210.79 137.74 211.99 136.8C212.85 136.13 214.93 134.18 216.61 132.48C218.29 130.78 220.48 128.38 221.47 127.14C222.46 125.9 223.8 124.09 224.45 123.13C225.1 122.16 226.17 120.47 226.82 119.37C227.47 118.27 228.41 116.58 228.89 115.61C229.38 114.65 230.17 112.96 230.65 111.85C231.12 110.75 232.07 108.33 232.76 106.47C233.45 104.61 234.28 101.96 234.61 100.58C234.94 99.2 235.4 96.67 235.64 94.94C235.99 92.49 236.08 90.02 236.09 83.55C236.09 78.39 235.97 74.15 235.77 72.27C235.59 70.62 235.28 68.2 235.07 66.89C234.87 65.58 234.48 63.52 234.21 62.32C233.92 61.04 233.6 60.15 233.44 60.19C233.28 60.22 231.59 62.73 229.67 65.76C227.75 68.79 225.57 72.51 224.84 74.03C224.1 75.54 223.14 77.8 222.71 79.04C222.27 80.28 221.69 82.19 221.4 83.3C220.97 84.97 220.91 85.77 221.03 88.18C221.11 89.79 221.48 92.56 221.87 94.45C222.46 97.29 222.54 98.15 222.38 99.71C222.28 100.74 222.02 102.2 221.81 102.96C221.6 103.72 221.13 105.07 220.77 105.97C220.41 106.86 219.53 108.5 218.81 109.6C218.09 110.7 216.95 112.1 216.28 112.7C215.61 113.31 214.46 114.18 213.74 114.64C212.92 115.17 212.16 115.92 211.74 116.64C211.36 117.28 210.53 118.49 209.9 119.33C209.27 120.18 207.91 121.64 206.89 122.59C205.77 123.62 204.34 124.64 203.28 125.15C202.32 125.63 200.99 126.09 200.34 126.2C199.69 126.3 199.16 126.36 199.15 126.32C199.15 126.29 199.81 125.5 200.62 124.57C201.43 123.64 202.55 122.2 203.11 121.37C203.67 120.55 204.46 119.14 204.86 118.24C205.26 117.35 205.78 116.05 206 115.36C206.22 114.67 206.57 113.04 206.78 111.73C207.03 110.14 207.43 108.81 207.96 107.72C208.51 106.62 209.42 105.43 210.79 104.06C211.89 102.95 213.2 101.74 213.68 101.38C214.49 100.77 214.55 100.62 214.55 99.36C214.55 98.24 214.44 97.87 213.93 97.33C213.58 96.97 212.74 96.51 212.05 96.31C211.36 96.11 210.66 95.94 210.48 95.94C210.31 95.95 209.47 96.67 208.6 97.55C207.1 99.09 206.96 99.17 205.04 99.6C203.93 99.84 202.44 100.33 201.71 100.69C200.99 101.04 200.35 101.28 200.28 101.21C200.22 101.14 200.36 100.57 200.61 99.95C200.85 99.33 201.34 98.32 201.69 97.7C202.05 97.08 203.72 95.28 205.41 93.69C207.1 92.11 208.63 90.5 208.82 90.12C209.01 89.74 209.11 89.32 209.04 89.18C208.97 89.04 208.52 88.76 208.04 88.56C207.45 88.3 205.68 88.11 202.59 87.97C198.42 87.77 197.89 87.7 196.58 87.09C195.64 86.66 194.97 86.15 194.64 85.61C194.37 85.17 194.14 84.69 194.14 84.55C194.14 84.41 196.14 83.65 198.59 82.86C201.24 82 203.89 81.31 205.16 81.15C206.33 81 207.66 80.78 208.1 80.65C208.55 80.52 208.92 80.27 208.93 80.1C208.93 79.93 207.62 78.83 206.02 77.66C204.41 76.49 202.75 75.29 202.31 75C201.88 74.72 201.14 74.04 200.67 73.5C200.2 72.96 199.49 71.82 199.1 70.96C198.71 70.1 198.42 69.34 198.46 69.28C198.49 69.22 199.76 69.57 201.28 70.06C203.1 70.65 204.71 70.99 206.04 71.08C207.14 71.15 209.06 71.08 210.3 70.92C211.54 70.77 212.99 70.5 213.53 70.33C214.06 70.16 214.54 69.88 214.59 69.71C214.64 69.53 214.04 68.63 213.26 67.7C212.48 66.77 211.53 65.33 211.14 64.51C210.76 63.68 210.15 61.93 209.8 60.62C209.46 59.32 209.17 57.65 209.17 56.93C209.17 56.21 209.25 55.61 209.36 55.61C209.46 55.61 210.28 56.37 211.17 57.3C212.07 58.23 213.26 59.21 213.8 59.48C214.51 59.82 215.71 60.03 217.94 60.18L221.07 60.4C222.18 59.31 223.68 57.59 225.13 55.86C226.57 54.14 229.02 51.04 230.57 48.98C232.12 46.91 234.59 43.44 236.06 41.27L238.73 37.33C237.27 37.35 235.61 37.62 234.09 37.93Z" />
		<path class="shp0" d="M88.45 101.94C88.03 102.36 87.93 102.77 87.93 104.09C87.93 104.98 88.16 106.76 88.44 108.03C88.73 109.31 89.26 110.9 89.63 111.58C90 112.25 90.93 113.42 91.68 114.17C92.58 115.05 93.83 115.92 95.25 116.64C96.46 117.24 97.61 117.74 97.82 117.74C98.08 117.74 97.95 118.03 97.4 118.68C96.97 119.2 96.46 119.99 96.28 120.43C96.09 120.88 95.94 121.9 95.94 122.69C95.94 123.48 96.1 124.69 96.3 125.38C96.57 126.32 96.98 126.94 97.93 127.82C98.63 128.48 99.73 129.25 100.39 129.55C101.36 129.99 101.92 130.06 103.46 129.97C104.84 129.89 105.62 129.7 106.42 129.25C107.03 128.91 107.83 128.14 108.25 127.51C108.66 126.89 109.13 125.96 109.29 125.44C109.46 124.92 109.71 124.53 109.84 124.57C109.98 124.61 110.55 125.54 111.1 126.64C111.65 127.74 112.59 130 113.2 131.65C113.81 133.3 114.39 134.76 114.5 134.9C114.61 135.04 114.78 133.97 114.87 132.52C114.96 131.07 114.99 128.65 114.94 127.14C114.84 124.45 114.81 124.33 113.73 122.25C112.91 120.67 112.11 119.6 110.61 118.1C109.5 116.99 107.46 115.33 106.09 114.42C104.71 113.51 102.29 112.18 100.7 111.47C99.12 110.76 96.92 109.71 95.82 109.14C94.72 108.56 93.25 107.53 92.56 106.84C91.86 106.16 91.07 105.14 90.81 104.59C90.55 104.04 90.27 103.14 90.19 102.59C90.09 101.8 89.94 101.57 89.51 101.51C89.21 101.46 88.73 101.66 88.45 101.94ZM160.07 101.76C159.88 101.92 159.74 102.35 159.77 102.7C159.8 103.05 159.55 103.9 159.22 104.59C158.88 105.29 157.96 106.44 157.15 107.19C155.97 108.28 154.61 109.07 150.18 111.25C145.79 113.4 144.1 114.38 141.92 116.03C140.41 117.18 138.69 118.74 138.09 119.49C137.49 120.25 136.59 121.71 136.08 122.74C135.15 124.58 135.14 124.63 135.06 128.12C135.01 130.06 135.05 132.49 135.15 133.52C135.25 134.71 135.39 135.26 135.52 135.03C135.63 134.82 136.2 133.35 136.78 131.77C137.36 130.19 138.27 127.96 138.81 126.82C139.34 125.69 139.92 124.76 140.09 124.75C140.26 124.75 140.6 125.32 140.84 126.01C141.09 126.7 141.65 127.67 142.1 128.17C142.54 128.67 143.36 129.32 143.91 129.61C144.69 130.01 145.37 130.13 146.92 130.13C148.51 130.13 149.14 130.02 149.99 129.57C150.57 129.27 151.46 128.65 151.96 128.2C152.46 127.75 153.1 126.94 153.37 126.38C153.68 125.77 153.92 124.66 154 123.5C154.08 122.18 154.01 121.36 153.76 120.75C153.56 120.27 153.04 119.48 152.61 118.99L151.82 118.12C153.65 117.39 154.8 116.82 155.56 116.39C156.31 115.96 157.54 115.05 158.28 114.36C159.18 113.52 159.9 112.53 160.46 111.35C160.93 110.39 161.48 108.73 161.69 107.66C161.9 106.59 162.07 105.04 162.07 104.21C162.07 102.94 161.98 102.61 161.45 102.08C161.1 101.74 160.73 101.46 160.62 101.46C160.51 101.46 160.26 101.59 160.07 101.76Z" />
	</g>
</svg>