<svg id="svg" version="1.1" xmlns="http://www.w3.org/2000/svg" xmlns:xlink="http://www.w3.org/1999/xlink" width="400" height="282.9032258064516" viewBox="0, 0, 400,282.9032258064516"><g id="svgg"><path id="path0" d="M0.241 24.792 C -0.083 26.357,-0.019 257.569,0.305 257.276 C 0.588 257.019,14.657 257.000,200.305 257.000 L 400.000 257.000 400.000 140.583 L 400.000 24.167 200.185 24.167 L 0.370 24.167 0.241 24.792 " stroke="none" fill="#50274e" fill-rule="evenodd"></path><path id="path1" d="M0.622 0.708 C 0.579 1.098,0.552 6.442,0.563 12.583 L 0.583 23.750 200.292 23.792 L 400.000 23.833 400.000 11.917 L 400.000 0.000 200.351 0.000 L 0.702 0.000 0.622 0.708 M0.535 269.125 L 0.583 280.917 200.292 280.958 L 400.000 281.000 400.000 269.167 L 400.000 257.333 200.244 257.333 L 0.488 257.333 0.535 269.125 " stroke="none" fill="#fbeb04" fill-rule="evenodd"></path><path id="path2" d="M0.374 11.958 L 0.417 23.917 200.250 23.917 L 400.083 23.917 200.333 23.833 L 0.583 23.750 0.583 11.875 C 0.583 5.344,0.527 -0.000,0.457 -0.000 C 0.388 -0.000,0.350 5.381,0.374 11.958 M0.410 257.375 C 0.366 257.490,0.350 262.871,0.374 269.333 L 0.417 281.083 200.250 281.083 L 400.083 281.084 200.333 281.000 L 0.583 280.917 0.535 269.125 L 0.488 257.333 200.285 257.292 L 400.083 257.250 200.286 257.208 C 40.572 257.175,0.474 257.208,0.410 257.375 " stroke="none" fill="#ac9b1d" fill-rule="evenodd"></path><path id="path3" d="M0.207 12.028 C 0.185 18.414,0.212 23.758,0.268 23.903 C 0.360 24.143,18.112 24.163,200.226 24.125 L 400.083 24.084 200.250 24.000 L 0.417 23.917 0.332 12.167 L 0.247 0.417 0.207 12.028 M0.367 257.200 C 0.257 257.310,0.172 257.516,0.178 257.658 C 0.186 257.837,0.230 257.814,0.320 257.583 C 0.450 257.250,0.643 257.250,200.267 257.167 L 400.083 257.083 200.325 257.042 C 45.133 257.009,0.522 257.045,0.367 257.200 M0.245 268.833 C 0.245 274.837,0.266 277.294,0.292 274.292 C 0.317 271.290,0.317 266.377,0.292 263.375 C 0.266 260.373,0.245 262.829,0.245 268.833 M0.333 281.208 C 0.333 281.277,90.277 281.315,200.208 281.292 C 310.140 281.269,367.496 281.232,327.667 281.209 C 132.288 281.096,0.333 281.096,0.333 281.208 " stroke="none" fill="#5c5c24" fill-rule="evenodd"></path><path id="path4" d="M0.000 12.750 C 0.000 19.793,0.045 25.511,0.099 25.457 C 0.216 25.340,0.196 0.141,0.079 0.024 C 0.036 -0.020,0.000 5.707,0.000 12.750 M0.111 257.944 C 0.050 258.006,-0.000 263.631,-0.000 270.444 L 0.000 282.833 200.000 282.833 L 400.000 282.833 400.000 282.083 L 400.000 281.333 200.174 281.333 L 0.348 281.333 0.255 280.792 C 0.203 280.494,0.181 275.206,0.205 269.042 C 0.230 262.877,0.244 257.833,0.236 257.833 C 0.228 257.833,0.172 257.883,0.111 257.944 " stroke="none" fill="#41444b" fill-rule="evenodd"></path></g></svg>