<?xml version="1.0" standalone="no"?>
<!DOCTYPE svg PUBLIC "-//W3C//DTD SVG 20010904//EN"
 "http://www.w3.org/TR/2001/REC-SVG-20010904/DTD/svg10.dtd">
<svg version="1.0" xmlns="http://www.w3.org/2000/svg"
 width="400.000000pt" height="400.000000pt" viewBox="0 0 400.000000 400.000000"
 preserveAspectRatio="xMidYMid meet">

<g transform="translate(0.000000,400.000000) scale(0.100000,-0.100000)"
fill="#000000" stroke="none">
<path d="M1968 3994 c-3 -3 -59 -8 -124 -12 -68 -4 -119 -11 -121 -18 -2 -6 5
-20 16 -32 16 -19 20 -46 26 -169 5 -105 4 -148 -4 -151 -6 -2 -11 -13 -11
-24 0 -19 5 -20 130 -16 107 2 130 6 131 18 0 8 4 38 8 67 6 42 4 53 -8 58
-15 6 -31 -10 -31 -32 0 -18 -60 -63 -84 -63 -21 0 -24 6 -30 71 -3 40 -4 74
-1 77 7 8 45 -29 45 -45 0 -7 7 -13 15 -13 12 0 15 16 15 80 0 73 -2 80 -20
80 -13 0 -20 -7 -20 -19 0 -19 -26 -48 -35 -39 -3 2 -8 32 -11 66 l-7 62 33 0
c26 0 41 -9 71 -41 21 -23 42 -38 47 -35 6 3 5 29 -3 66 -13 63 -18 74 -27 64z"/>
<path d="M2090 3973 c0 -10 4 -23 10 -29 15 -15 -23 -294 -44 -327 -10 -14
-13 -27 -9 -30 4 -3 38 -8 76 -12 63 -7 67 -6 67 13 0 11 -5 22 -11 24 -12 4
-2 138 10 138 4 0 15 -42 26 -94 l18 -94 36 -6 c64 -10 81 -8 81 13 0 11 -5
21 -11 23 -6 2 -19 38 -29 81 l-18 78 29 14 c36 19 56 80 43 127 -13 46 -60
74 -136 82 -35 4 -80 10 -100 13 -33 5 -38 3 -38 -14z m164 -59 c39 -38 -9
-147 -53 -119 -9 5 -6 90 5 123 5 17 29 15 48 -4z"/>
<path d="M1518 3931 l-108 -26 0 -31 c0 -49 11 -94 24 -94 7 0 17 20 24 45 12
47 27 58 35 28 45 -168 68 -286 57 -293 -7 -4 -9 -16 -6 -28 6 -17 11 -19 34
-12 15 5 46 14 70 20 30 8 42 16 42 29 0 10 -8 21 -18 23 -13 4 -25 36 -50
142 -18 76 -36 144 -39 152 -10 27 19 14 53 -23 46 -50 59 -34 30 36 -12 30
-26 55 -31 57 -6 1 -58 -10 -117 -25z"/>
<path d="M2617 3870 c-3 -11 -2 -22 3 -25 4 -3 -17 -62 -46 -132 -29 -71 -54
-142 -54 -159 0 -59 65 -114 135 -114 54 0 84 37 141 174 35 84 55 121 70 126
41 16 36 38 -13 60 -37 16 -48 18 -55 8 -10 -17 -10 -26 2 -33 17 -11 11 -37
-36 -150 -47 -115 -67 -145 -93 -145 -25 0 -61 29 -61 48 0 34 106 277 120
277 8 0 16 8 18 18 3 12 -9 22 -40 36 -77 33 -85 34 -91 11z"/>
<path d="M1280 3855 c-7 -8 -23 -15 -37 -15 -32 0 -80 -26 -93 -49 -16 -32
-12 -103 10 -138 27 -45 59 -63 121 -69 87 -9 99 -13 110 -41 7 -20 6 -30 -7
-44 -27 -30 -77 -24 -119 12 -54 48 -66 26 -25 -45 28 -50 50 -71 50 -47 0 5
21 11 48 15 75 10 112 51 112 123 0 51 -37 114 -80 135 -20 10 -58 18 -87 18
-40 0 -58 5 -73 20 -26 26 -25 36 4 55 26 17 46 13 92 -21 51 -37 60 -16 20
49 -28 48 -36 55 -46 42z"/>
<path d="M2945 3739 c-4 -6 -8 -25 -9 -42 -2 -44 -141 -257 -166 -257 -11 0
-23 -8 -29 -17 -8 -14 -2 -23 32 -45 35 -23 43 -25 50 -13 4 9 5 24 2 36 -5
14 10 47 52 114 32 52 60 94 63 95 3 0 -3 -69 -14 -154 -16 -127 -17 -158 -6
-170 7 -9 18 -16 25 -16 7 0 52 63 101 140 60 94 96 142 111 146 46 12 47 31
4 59 -46 31 -65 26 -56 -15 5 -21 -3 -42 -36 -94 -24 -36 -44 -65 -45 -63 -1
1 4 56 12 122 l15 119 -22 17 c-48 36 -77 50 -84 38z"/>
<path d="M980 3715 c-7 -8 -52 -40 -101 -71 -49 -31 -89 -60 -89 -65 0 -10 21
-23 38 -24 19 0 183 -258 172 -269 -6 -6 -5 -15 1 -23 8 -9 8 -13 0 -13 -6 0
-11 5 -11 11 0 6 -8 8 -18 5 -23 -8 -238 205 -229 227 3 9 -1 21 -9 28 -13 10
-24 4 -66 -39 -43 -42 -49 -53 -39 -66 7 -8 18 -13 24 -10 7 2 33 -16 57 -42
l45 -45 -30 -25 c-16 -13 -33 -24 -36 -24 -12 0 -80 90 -75 99 3 5 -1 15 -10
22 -13 11 -23 5 -66 -39 -44 -44 -50 -53 -38 -66 9 -11 16 -13 25 -6 8 7 43
-22 124 -105 62 -63 109 -119 106 -125 -4 -6 -1 -18 6 -26 11 -13 20 -8 65 37
42 41 51 56 42 66 -6 7 -18 11 -27 8 -11 -3 -34 12 -66 45 l-49 50 29 30 29
30 52 -51 c34 -34 50 -57 47 -69 -10 -38 20 -32 65 13 41 40 242 179 275 190
17 5 -34 121 -55 125 -14 3 -16 -5 -15 -42 2 -44 -23 -94 -50 -103 -6 -2 -30
23 -53 57 -33 49 -38 61 -25 66 8 4 27 -1 41 -11 47 -30 47 -2 1 67 -29 45
-47 64 -56 59 -7 -5 -10 -18 -6 -32 5 -22 -9 -60 -18 -49 -2 3 -19 27 -37 54
-31 47 -32 50 -15 63 24 17 73 16 105 -2 18 -9 29 -10 38 -3 9 8 3 21 -30 57
-51 55 -52 56 -68 36z"/>
<path d="M3229 3543 c-1 -5 -2 -20 -3 -34 -3 -38 -191 -249 -220 -246 -37 4
-24 -27 33 -77 48 -43 55 -46 69 -32 11 11 12 18 4 28 -14 18 178 243 208 243
44 1 44 22 0 61 -70 63 -88 74 -91 57z"/>
<path d="M3383 3408 c-5 -7 -13 -21 -16 -31 -4 -10 -52 -83 -108 -163 l-101
-144 33 -41 32 -41 16 27 c19 32 283 169 312 162 10 -3 24 2 30 9 10 12 6 21
-22 50 -38 39 -52 39 -59 -2 -4 -24 -20 -37 -100 -81 -52 -29 -98 -53 -102
-53 -4 0 24 44 63 98 39 53 77 97 85 97 30 0 37 22 16 52 -37 51 -68 75 -79
61z"/>
<path d="M410 3202 c0 -12 -13 -30 -30 -42 -78 -56 -45 -195 64 -269 54 -37
98 -51 158 -51 43 0 54 4 84 34 28 28 34 42 34 76 0 67 -37 129 -62 104 -4 -3
0 -21 8 -40 11 -25 12 -40 4 -54 -25 -46 -102 -32 -200 38 -63 44 -93 82 -85
104 10 25 60 41 105 34 77 -12 37 33 -72 82 -5 2 -8 -5 -8 -16z"/>
<path d="M3595 3140 c-3 -5 -4 -14 -1 -19 10 -15 -245 -166 -277 -164 -16 1
-30 -4 -33 -11 -3 -7 20 -55 50 -105 31 -50 56 -96 56 -101 0 -19 19 -19 71 1
68 26 69 27 63 44 -4 9 -19 13 -45 12 -40 -1 -92 27 -96 54 -1 8 25 31 58 51
48 31 61 35 65 23 4 -8 -1 -27 -11 -41 -29 -45 -3 -46 68 -3 53 32 66 44 57
54 -6 7 -19 11 -30 8 -10 -3 -26 -1 -36 5 -14 8 -9 15 37 45 48 31 55 33 67
19 17 -22 15 -83 -4 -111 -11 -15 -13 -26 -6 -33 11 -11 24 -4 81 44 l32 28
-39 57 c-21 32 -51 79 -66 106 -27 45 -48 58 -61 37z"/>
<path d="M1276 3125 c-134 -34 -234 -103 -369 -255 l-62 -69 -82 6 c-46 3 -83
3 -83 0 0 -3 18 -35 41 -71 l40 -64 -25 -51 c-53 -103 -71 -193 -71 -351 0
-158 10 -209 66 -348 59 -149 159 -280 266 -351 63 -42 160 -58 254 -42 l72
12 72 -68 c101 -94 115 -127 164 -383 43 -221 62 -277 121 -357 26 -35 38 -43
63 -43 27 -1 38 -9 69 -55 28 -40 52 -60 93 -80 109 -54 201 -29 282 75 37 48
52 60 75 60 21 0 35 10 59 43 56 75 77 137 118 347 55 279 55 281 155 379 80
77 85 81 117 73 68 -15 201 -7 249 15 170 76 329 328 370 586 25 154 -3 365
-65 487 l-24 47 21 39 c11 22 29 51 39 66 11 14 19 29 19 33 0 4 -36 4 -79 1
l-79 -7 -119 119 c-131 133 -188 169 -321 203 -96 24 -179 24 -276 -1 -169
-43 -312 -158 -385 -309 -22 -46 -43 -103 -47 -127 -7 -48 -24 -60 -24 -18 0
35 -46 148 -85 209 -37 58 -121 140 -184 180 -115 72 -312 103 -445 70z m259
-139 c17 -13 18 -19 7 -77 -8 -46 -19 -71 -41 -93 -26 -26 -81 -132 -81 -154
0 -3 14 10 31 31 17 21 57 55 89 77 32 22 76 58 98 81 48 51 77 49 109 -8 l22
-38 -39 -22 c-22 -13 -48 -41 -62 -65 -19 -36 -34 -47 -84 -68 -81 -33 -110
-54 -130 -91 -20 -39 -12 -47 18 -19 42 40 78 53 132 47 46 -4 59 0 132 39 44
24 87 44 95 44 10 0 23 -25 37 -68 27 -84 27 -80 -1 -75 -46 9 -105 -17 -164
-71 -32 -29 -67 -56 -78 -60 -19 -8 -18 -9 7 -18 20 -7 43 -5 82 6 103 30 122
25 210 -55 l77 -72 47 45 c112 106 125 111 231 82 36 -10 70 -14 87 -9 l29 7
-29 15 c-16 8 -40 28 -54 44 -39 47 -108 83 -161 83 l-46 1 25 73 c23 68 27
72 50 67 14 -4 54 -23 90 -43 57 -32 73 -37 131 -37 61 0 71 -3 109 -34 23
-18 43 -31 45 -29 2 2 -3 18 -12 37 -18 36 -70 73 -118 85 -46 11 -73 32 -94
74 -10 20 -37 48 -59 62 -38 24 -39 26 -27 50 34 66 77 74 115 20 11 -15 51
-49 89 -74 38 -25 82 -61 97 -81 15 -20 28 -34 31 -32 8 9 -49 119 -77 149
-34 35 -41 54 -43 124 -2 44 0 49 26 58 22 8 32 6 55 -11 40 -30 60 -70 72
-148 6 -38 18 -80 26 -92 7 -12 14 -36 14 -53 0 -39 15 -38 29 2 8 23 8 41 0
65 -9 27 -7 44 10 93 12 33 21 69 21 79 0 31 14 32 52 6 28 -19 38 -34 43 -64
4 -22 4 -48 1 -58 -2 -10 -7 -40 -11 -68 -3 -27 -13 -60 -21 -72 -18 -28 -11
-29 32 -2 36 22 77 84 88 133 l7 29 40 -39 c45 -44 47 -50 17 -58 -49 -12
-187 -108 -256 -178 -90 -89 -162 -197 -202 -300 -44 -115 -54 -169 -55 -308
0 -150 16 -213 75 -291 22 -29 40 -56 39 -59 0 -3 -32 -29 -70 -59 -75 -57
-86 -73 -118 -188 -21 -73 -41 -103 -66 -103 -28 0 -84 62 -123 138 -74 140
-71 143 -72 -75 l0 -193 58 0 c101 0 168 -64 157 -150 -8 -68 -32 -132 -64
-170 -27 -33 -31 -35 -85 -32 l-56 4 0 42 c0 70 80 162 130 149 37 -10 13 43
-27 58 -41 15 -89 -5 -159 -66 l-64 -57 -58 53 c-90 82 -144 98 -188 54 -25
-25 -25 -49 0 -39 22 8 93 -44 110 -81 9 -18 16 -51 16 -74 l0 -41 -58 0 c-68
0 -79 8 -116 90 -71 157 -22 260 123 260 l61 0 0 193 c-1 212 -1 212 -57 102
-58 -114 -118 -174 -157 -159 -16 6 -48 82 -61 144 -13 60 -33 87 -105 145
-39 31 -70 58 -70 60 0 3 18 28 40 57 48 64 69 126 77 233 24 331 -158 652
-462 816 l-77 42 39 39 c37 38 38 38 46 16 25 -67 53 -109 88 -132 21 -14 40
-26 43 -26 2 0 -5 18 -16 39 -14 28 -20 63 -21 126 l-2 87 35 29 c42 35 60 37
60 6 0 -13 9 -50 20 -82 16 -47 18 -65 10 -95 -7 -26 -7 -47 1 -69 14 -40 29
-40 29 2 0 18 6 41 14 52 7 11 19 52 25 90 15 87 36 132 70 150 33 18 52 18
76 1z m-622 -272 l47 -16 0 -64 c0 -35 3 -64 7 -64 4 0 24 19 44 43 l37 42 34
-18 c18 -10 48 -31 67 -46 l35 -28 -32 -50 c-41 -64 -41 -78 0 -57 25 13 38
14 67 5 20 -6 45 -10 55 -9 13 2 26 -8 38 -29 l19 -32 -56 -37 c-69 -46 -61
-59 37 -60 61 0 72 -3 79 -20 12 -31 11 -33 -30 -44 -22 -6 -57 -18 -78 -27
l-38 -17 50 -9 c28 -6 69 -9 93 -9 43 1 43 1 40 -31 -3 -31 -4 -32 -45 -29
-25 2 -50 -2 -65 -12 -17 -11 -32 -13 -60 -7 -45 10 -48 1 -12 -28 20 -16 40
-21 78 -20 67 2 106 -14 106 -43 0 -22 -4 -23 -91 -26 -64 -2 -99 2 -120 12
-37 19 -37 6 1 -33 22 -21 47 -33 88 -41 31 -6 65 -14 75 -17 27 -7 40 -43 28
-76 -12 -31 -18 -33 -48 -12 -12 9 -41 22 -63 30 -23 8 -55 24 -71 36 -67 47
-42 -12 28 -67 63 -50 73 -63 73 -94 0 -35 -17 -50 -59 -50 -27 0 -50 12 -110
62 -42 34 -77 65 -79 70 -2 4 -8 8 -13 8 -16 0 -10 -44 11 -75 11 -16 20 -36
20 -42 0 -55 -147 97 -206 212 -74 143 -79 167 -78 370 0 99 5 193 10 209 l10
29 48 -76 c26 -42 57 -104 68 -138 19 -57 20 -69 9 -138 -15 -103 8 -177 69
-223 16 -12 42 -39 56 -59 28 -40 54 -61 93 -74 23 -7 23 -6 -8 38 -17 25 -38
71 -46 102 -15 61 -25 78 -63 110 -32 27 -26 59 11 63 15 2 27 -1 27 -6 0 -6
20 -17 45 -25 25 -9 45 -13 45 -9 0 13 -32 54 -63 82 -39 35 -28 50 36 50 54
0 107 24 90 41 -5 5 -42 17 -82 27 l-73 19 50 37 c73 53 82 88 18 66 -30 -10
-126 -6 -126 6 0 2 11 19 24 38 22 33 43 103 33 113 -3 2 -16 -7 -30 -21 -19
-19 -37 -26 -65 -26 -35 0 -43 5 -89 63 -57 72 -133 174 -133 181 0 5 74 -11
133 -30z m2266 -31 c-23 -32 -64 -86 -92 -120 -45 -58 -52 -63 -87 -63 -27 0
-48 8 -69 26 -27 23 -31 24 -31 7 1 -29 26 -92 46 -114 9 -10 15 -22 11 -25
-12 -12 -85 -16 -122 -5 -21 6 -40 9 -42 7 -10 -10 15 -40 59 -73 l51 -37 -69
-18 c-103 -28 -99 -25 -79 -48 14 -16 31 -20 76 -20 32 0 61 -5 64 -11 4 -5
-14 -32 -39 -59 -51 -54 -59 -75 -23 -64 50 16 67 24 67 34 0 6 12 10 27 8 42
-5 41 -34 -1 -77 -26 -26 -40 -54 -51 -96 -9 -33 -29 -79 -45 -102 -16 -24
-25 -43 -18 -43 21 0 78 42 100 73 12 18 37 45 55 60 66 57 88 125 71 225 -11
69 -11 79 10 138 12 36 44 99 69 140 47 76 47 76 57 48 5 -16 9 -110 10 -209
1 -152 -2 -189 -18 -235 -44 -130 -138 -275 -223 -345 -28 -22 -34 -24 -39
-11 -3 8 4 29 15 45 18 25 30 81 17 81 -3 0 -20 -14 -38 -30 -18 -17 -56 -49
-85 -71 -45 -35 -57 -40 -95 -37 -42 3 -43 4 -46 39 -3 34 2 41 58 90 87 76
111 126 36 75 -20 -14 -54 -30 -74 -37 -20 -7 -47 -19 -60 -27 -26 -17 -37
-10 -47 30 -10 38 20 63 84 71 60 7 106 31 130 67 15 23 15 24 -4 15 -11 -5
-66 -10 -122 -11 l-103 -3 0 25 c0 31 31 44 109 44 44 0 62 5 79 20 31 29 28
33 -18 26 -29 -4 -47 -2 -65 10 -14 9 -39 14 -62 12 -36 -3 -38 -2 -38 27 0
26 3 30 25 28 14 -2 54 3 89 10 l64 13 -51 22 c-28 12 -62 22 -76 22 -29 0
-31 8 -16 42 10 21 17 23 85 23 74 0 102 9 75 25 -8 5 -34 22 -58 40 l-43 31
20 32 c15 23 27 31 43 29 12 -1 35 2 52 8 22 8 36 6 59 -5 17 -8 32 -15 34
-15 10 0 -1 28 -27 67 -16 24 -30 48 -30 52 0 11 55 53 98 75 32 17 35 17 54
-1 11 -9 27 -30 36 -45 9 -16 20 -28 24 -28 4 0 8 31 8 70 l0 69 58 16 c31 9
62 18 67 20 6 2 20 4 33 4 21 1 20 -3 -19 -56z"/>
<path d="M1605 2049 c-11 -17 4 -92 23 -116 9 -11 32 -30 50 -41 20 -12 29
-23 23 -26 -19 -12 -13 -74 9 -96 30 -30 83 -27 109 7 12 14 23 24 25 22 2 -2
13 -29 24 -59 l21 -55 0 71 c1 66 -1 73 -33 111 -20 23 -66 56 -108 78 -85 44
-118 71 -118 97 0 20 -15 24 -25 7z"/>
<path d="M2371 2039 c-13 -34 -49 -65 -105 -89 -61 -26 -122 -74 -141 -111 -9
-16 -15 -54 -14 -91 l0 -63 22 58 c22 60 32 69 42 38 3 -11 20 -24 37 -30 48
-17 92 12 96 63 2 20 -2 43 -8 50 -8 10 -3 16 20 26 42 18 68 53 76 106 8 53
-9 83 -25 43z"/>
<path d="M3778 2817 c-32 -34 -293 -134 -311 -118 -7 6 -18 6 -26 1 -12 -7
-10 -19 9 -72 12 -34 24 -64 25 -66 6 -7 35 11 35 22 0 7 29 24 65 38 36 14
65 22 65 19 0 -4 -31 -33 -70 -65 -38 -31 -70 -64 -70 -71 0 -8 7 -33 16 -55
12 -28 21 -39 31 -36 8 3 17 6 19 6 2 0 4 6 4 14 0 7 27 37 60 66 57 49 62 51
79 36 10 -9 35 -16 60 -16 36 0 49 6 77 34 43 43 43 69 4 177 -44 118 -43 117
-72 86z m42 -142 c0 -41 -79 -78 -112 -53 -33 25 -24 39 37 62 33 12 63 21 68
19 4 -2 7 -15 7 -28z"/>
<path d="M128 2683 c-19 -54 -38 -105 -42 -113 -5 -12 8 -23 50 -43 70 -35 92
-24 45 23 -58 58 -40 62 82 18 61 -22 127 -45 146 -51 19 -6 36 -19 38 -28 4
-15 32 -35 38 -27 7 9 45 121 45 133 0 16 -36 21 -42 6 -2 -8 -279 82 -297 96
-11 9 21 25 58 30 59 8 51 28 -16 42 -31 6 -60 11 -63 11 -4 0 -23 -44 -42
-97z"/>
<path d="M3790 2439 c-42 -17 -70 -50 -85 -103 -20 -67 -41 -96 -68 -96 -32 0
-47 18 -47 56 0 26 9 40 41 68 25 21 39 41 36 49 -5 12 -16 11 -69 -7 -76 -25
-76 -25 -59 -36 10 -6 12 -19 7 -49 -8 -49 11 -101 45 -125 29 -20 120 -21
157 -2 41 21 59 46 77 108 18 65 47 93 77 77 29 -16 22 -57 -17 -96 -52 -52
-41 -65 34 -40 44 14 58 23 51 32 -5 6 -9 32 -8 58 1 77 -39 118 -115 116 -18
0 -43 -5 -57 -10z"/>
<path d="M56 2426 c3 -8 -2 -28 -10 -45 -19 -35 -21 -84 -5 -113 14 -27 85
-58 133 -58 36 0 46 6 107 70 37 39 73 70 79 70 27 0 50 -22 50 -49 0 -33 -31
-64 -82 -81 -55 -17 -50 -40 10 -40 26 0 58 -3 71 -7 20 -5 22 -3 17 14 -4 11
3 40 14 67 18 39 19 52 10 80 -14 43 -45 71 -97 86 -70 21 -105 8 -169 -65
-57 -65 -79 -76 -102 -53 -28 28 3 76 63 95 17 5 31 17 33 26 3 15 -6 17 -62
17 -52 0 -64 -3 -60 -14z"/>
<path d="M3958 2162 c-10 -2 -18 -9 -18 -16 0 -10 -39 -15 -157 -21 -137 -6
-157 -5 -165 9 -5 9 -18 16 -30 16 -18 0 -20 -4 -14 -37 3 -21 6 -57 6 -80 0
-36 3 -43 20 -43 11 0 20 6 20 14 0 15 78 25 230 27 83 2 95 0 98 -15 2 -11
10 -15 19 -12 8 3 17 6 19 6 6 0 4 81 -4 120 -5 27 -11 35 -24 32z"/>
<path d="M286 2135 c-3 -9 4 -20 22 -29 38 -20 59 -46 67 -83 l7 -33 -82 0
c-77 0 -80 1 -70 20 6 11 22 23 35 26 14 3 25 12 25 20 0 11 -18 14 -80 14
-86 0 -97 -8 -55 -42 14 -11 25 -24 25 -29 0 -5 -30 -9 -66 -9 l-66 0 6 33 c6
30 47 79 77 90 10 3 11 8 3 16 -17 19 -137 3 -130 -16 4 -8 6 -66 6 -129 0
-107 1 -114 20 -114 11 0 20 5 20 10 0 6 60 10 160 10 129 0 162 -3 166 -14 5
-13 27 -16 38 -5 3 2 6 61 7 129 l1 125 -58 12 c-75 15 -71 16 -78 -2z"/>
<path d="M3865 1962 c-10 -10 -5 -32 8 -32 17 0 73 -47 66 -55 -4 -3 -58 -1
-120 5 -180 16 -199 20 -199 36 0 8 -9 14 -19 14 -16 0 -21 -9 -25 -42 -14
-112 -14 -108 10 -108 12 0 24 5 26 11 3 8 40 8 138 0 174 -15 185 -18 170
-36 -6 -8 -27 -19 -46 -25 -19 -6 -34 -18 -34 -26 0 -15 23 -17 91 -8 l44 6 3
82 c2 44 7 97 11 117 l8 36 -63 15 c-35 8 -66 13 -69 10z"/>
<path d="M22 1801 c-10 -6 -11 -19 -6 -47 3 -21 8 -42 10 -46 7 -11 44 4 44
18 0 17 20 21 135 29 54 3 86 2 80 -4 -6 -5 -62 -30 -125 -56 -63 -27 -117
-50 -119 -51 -6 -6 31 -84 40 -84 4 0 28 9 54 20 34 14 68 20 123 20 l77 -1
-110 -45 c-61 -24 -111 -40 -113 -34 -5 13 -29 13 -38 -1 -8 -13 16 -129 27
-129 4 0 14 7 22 15 8 8 88 44 178 81 90 37 167 70 171 73 4 3 2 27 -3 53
l-11 48 -28 -15 c-18 -9 -57 -15 -100 -15 -69 0 -86 11 -36 24 13 3 53 19 89
35 l65 29 -11 46 c-8 37 -14 45 -26 39 -9 -4 -83 -10 -166 -13 -116 -5 -157
-4 -179 7 -16 7 -30 13 -30 13 -1 0 -7 -4 -14 -9z"/>
<path d="M3527 1603 c-9 -38 -17 -71 -17 -75 0 -11 38 -10 44 1 4 5 31 3 64
-6 62 -16 163 -85 220 -149 18 -20 36 -33 41 -28 4 5 13 29 20 53 10 36 10 45
-1 52 -17 11 -26 11 -33 -1 -11 -18 -40 -10 -85 22 -42 31 -42 32 -19 38 13 4
48 10 77 13 42 5 52 3 52 -8 0 -8 8 -15 18 -15 14 0 22 12 30 48 6 26 14 57
18 68 4 16 0 23 -14 26 -11 3 -24 2 -29 -2 -4 -5 -54 -15 -110 -23 -90 -14
-108 -14 -161 0 -43 11 -62 20 -65 34 -11 40 -33 19 -50 -48z"/>
<path d="M3260 1048 c0 -6 -18 -26 -39 -45 -50 -42 -59 -80 -33 -131 40 -78
122 -102 211 -62 55 25 83 25 106 0 15 -17 16 -24 7 -45 -14 -30 -48 -39 -113
-32 -66 8 -65 -10 6 -57 61 -40 67 -42 59 -21 -4 9 6 22 29 35 91 54 93 156 4
221 -50 36 -100 38 -177 5 -40 -18 -60 -22 -73 -14 -28 14 -31 36 -11 60 17
18 27 19 77 14 74 -7 76 9 6 53 -56 35 -59 36 -59 19z"/>
<path d="M625 1017 c-123 -49 -209 -163 -185 -246 13 -47 27 -66 74 -105 l46
-37 43 34 c23 19 52 38 65 41 12 4 22 10 22 14 0 4 -18 27 -39 52 -34 38 -41
43 -55 31 -9 -7 -14 -17 -11 -21 5 -9 -51 -60 -65 -60 -17 0 -21 40 -7 67 32
62 173 183 213 183 14 0 30 -10 40 -25 15 -23 15 -29 0 -76 -25 -75 -8 -81 48
-17 33 38 42 54 31 56 -8 2 -23 23 -33 46 -30 67 -109 93 -187 63z"/>
<path d="M3078 842 l-46 -39 38 -81 c21 -45 37 -82 34 -82 -2 0 -36 23 -74 51
l-70 51 -50 -38 c-28 -21 -50 -41 -50 -45 0 -12 23 -24 40 -22 22 3 185 -215
186 -250 1 -46 18 -53 58 -22 20 15 36 30 36 34 -1 16 -19 33 -29 27 -6 -4
-17 -3 -25 1 -12 7 -121 140 -141 172 -11 18 0 12 98 -61 43 -32 82 -58 87
-58 4 0 13 6 19 14 10 11 2 35 -34 112 -25 53 -44 99 -42 101 8 7 158 -178
152 -188 -4 -5 -1 -16 5 -24 13 -16 22 -11 94 49 25 21 27 27 17 40 -7 8 -18
13 -24 11 -13 -4 -211 225 -213 246 -4 50 -6 50 -66 1z"/>
<path d="M853 785 c-17 -7 -50 -32 -72 -54 -99 -99 -116 -221 -40 -286 79 -66
230 6 290 139 34 75 20 163 -33 200 -28 20 -102 20 -145 1z m135 -65 c4 -31
-41 -101 -116 -181 -60 -65 -87 -79 -109 -56 -14 14 -13 20 5 59 12 23 47 73
78 111 79 95 135 122 142 67z"/>
<path d="M1116 654 c-4 -9 -2 -22 3 -28 13 -15 -138 -288 -156 -282 -7 3 -17
-3 -23 -14 -9 -17 -1 -24 72 -64 46 -25 92 -51 102 -59 18 -13 23 -10 64 40
53 66 46 82 -21 48 -34 -17 -55 -22 -70 -16 -12 5 -22 12 -21 16 0 4 34 67 74
141 54 98 78 133 89 129 13 -5 30 10 31 27 0 6 -122 78 -133 78 -3 0 -8 -7
-11 -16z"/>
<path d="M2727 601 c-40 -26 -42 -29 -23 -50 25 -27 96 -313 84 -335 -6 -11
-6 -22 2 -31 10 -12 16 -12 44 2 50 25 58 34 45 49 -6 8 -19 14 -29 14 -23 0
-44 54 -27 68 42 33 58 34 88 6 19 -18 25 -31 19 -39 -5 -6 -5 -16 0 -25 8
-13 19 -10 67 15 61 33 76 53 46 61 -11 3 -75 68 -144 145 -68 76 -128 139
-134 138 -5 0 -22 -8 -38 -18z m123 -212 c0 -3 -11 -11 -25 -17 -20 -9 -27 -9
-30 1 -9 28 -25 93 -25 102 1 10 79 -75 80 -86z"/>
<path d="M1344 527 c-3 -11 -1 -23 5 -26 15 -10 -86 -311 -104 -311 -17 0 -28
-30 -12 -35 209 -77 283 -55 338 100 24 68 24 118 0 172 -22 47 -30 53 -140
92 -78 27 -81 27 -87 8z m144 -79 c39 -39 -29 -256 -90 -289 -11 -6 -26 -8
-33 -5 -11 4 -3 38 36 155 28 84 56 151 63 151 7 0 17 -5 24 -12z"/>
<path d="M2525 505 c-5 -2 -49 -16 -97 -30 -90 -27 -105 -41 -69 -66 25 -18
117 -299 101 -309 -11 -7 -4 -40 9 -40 4 0 35 9 68 21 51 17 60 23 56 40 -3
10 -11 19 -18 19 -12 0 -60 119 -51 128 2 2 30 -30 61 -72 32 -42 63 -76 70
-76 16 0 78 21 88 30 10 9 -2 40 -17 40 -6 0 -33 27 -59 61 -44 54 -47 62 -34
77 8 9 17 25 21 36 9 27 -10 89 -37 114 -22 21 -71 35 -92 27z m9 -74 c9 -10
19 -34 23 -53 4 -29 1 -38 -18 -52 -13 -9 -26 -12 -30 -8 -9 9 -39 102 -39
119 0 20 44 16 64 -6z"/>
<path d="M1640 433 c0 -10 5 -24 11 -30 15 -15 -27 -304 -47 -319 -8 -6 -14
-18 -14 -26 0 -11 28 -18 113 -30 61 -9 118 -18 126 -20 9 -2 21 18 35 60 17
54 18 65 6 72 -10 6 -19 2 -30 -16 -25 -37 -52 -53 -89 -54 l-34 0 8 73 c3 39
9 74 12 77 7 7 43 -40 43 -56 0 -8 6 -14 14 -14 10 0 16 20 21 67 4 36 9 72
12 80 3 8 -3 13 -16 13 -12 0 -21 -6 -21 -15 0 -14 -37 -41 -46 -33 -6 6 8
104 16 119 14 22 69 -9 91 -52 31 -61 49 -52 49 24 l0 64 -102 12 c-57 7 -115
15 -130 18 -23 4 -28 2 -28 -14z"/>
<path d="M1958 413 c-41 -5 -51 -26 -22 -48 13 -9 17 -39 22 -163 3 -111 2
-152 -7 -152 -6 0 -11 -11 -11 -25 0 -27 12 -30 69 -19 36 8 39 16 11 42 -17
16 -21 36 -26 133 l-6 114 32 -55 c17 -30 52 -94 78 -142 41 -78 50 -88 74
-88 l27 0 -6 178 c-4 130 -3 181 5 186 7 4 12 16 12 27 0 16 -7 19 -50 19 -55
0 -67 -17 -31 -48 14 -13 21 -36 26 -94 4 -43 4 -78 1 -78 -3 0 -22 32 -42 72
-55 109 -82 148 -102 146 -9 -1 -34 -3 -54 -5z"/>
</g>
</svg>
